# This file uses centimeters as units for non-parametric coordinates.

mtllib Jacket.mtl
g default
v 356.455967 5.194264 -3.814358
v 358.661423 5.194264 -7.456997
v 354.189275 13.739732 -5.181853
v 356.282031 13.769568 -8.532668
v 353.671230 13.594481 -5.665469
v 355.613388 13.624321 -8.767492
v 355.707737 5.065742 -4.444107
v 357.756595 5.065744 -7.828101
v 356.570479 13.600284 -8.471233
v 354.421710 13.600282 -4.922280
v 354.468227 13.607469 -4.956134
v 356.562016 13.607464 -8.414338
v 358.756197 4.244634 -8.452044
v 357.756165 4.102601 -8.862185
v 358.193824 4.294775 -10.141830
v 359.193828 4.436818 -9.731706
v 354.791246 4.102596 -3.965178
v 355.618193 4.244640 -3.269164
v 354.687145 4.436815 -2.288245
v 353.860197 4.294776 -2.984259
v 354.967428 14.202265 -8.305044
v 355.846896 13.600280 -7.276185
v 357.563886 5.133704 -6.523341
v 358.402912 5.264164 -6.015348
v 356.450934 13.752341 -6.910467
v 354.751194 14.420752 -8.255994
v 353.871003 14.202263 -6.494075
v 355.190319 13.600281 -6.191691
v 356.819576 5.133699 -5.294000
v 357.658617 5.264166 -4.785975
v 355.794305 13.752337 -5.826005
v 353.814223 14.420755 -6.708446
v 354.992858 14.149647 -7.818568
v 355.455891 13.505322 -7.107901
v 357.259383 5.133702 -6.020407
v 358.098408 5.264164 -5.512414
v 356.220996 13.740019 -6.554995
v 354.536254 14.410517 -7.891418
v 354.341562 14.149652 -6.742740
v 355.193762 13.505326 -6.674898
v 357.159669 5.133706 -5.855657
v 357.998669 5.264164 -5.347680
v 356.038285 13.740021 -6.253222
v 354.073207 14.410514 -7.126626
v 358.856472 4.365855 -10.204564
v 355.975585 13.675352 -8.640286
v 355.076498 14.265886 -8.317423
v 353.910563 14.265886 -6.391707
v 353.951814 13.645505 -5.403524
v 354.111791 4.365847 -2.368015
v 355.239175 4.179532 -3.588193
v 354.685191 13.391609 -4.724204
v 356.113004 5.135357 -4.103007
v 358.246712 5.135366 -7.627086
v 356.868056 13.391608 -8.329589
v 358.297777 4.179529 -8.640047
v 355.480559 12.148601 -3.916602
v 355.649379 14.217670 -5.414575
v 353.888460 14.564915 -6.372178
v 353.795896 13.456425 -4.380142
v 353.622747 14.177524 -6.301967
v 353.245474 13.258526 -4.472256
v 353.018772 12.718472 -5.105635
v 353.647482 13.957644 -6.365406
v 355.131570 13.177636 -5.963237
v 354.090809 11.676859 -4.801188
v 358.869611 4.337064 -8.120552
v 358.217842 4.244489 -8.387891
v 358.917893 4.439881 -10.345608
v 359.448717 4.538323 -9.793435
v 355.425516 4.244489 -3.775949
v 355.964483 4.337070 -3.322303
v 354.750590 4.538323 -2.033778
v 354.015246 4.439878 -2.248214
v 356.804972 2.356362 -5.038819
v 355.126110 2.265158 -4.225243
v 355.734107 2.369582 -3.713546
v 356.248619 2.457965 -3.280486
v 354.370369 12.612674 -4.831184
v 358.063853 2.552107 -4.276646
v 358.416196 2.369588 -8.143360
v 359.038384 2.457965 -7.888199
v 356.676664 12.642508 -8.534691
v 358.001672 12.178439 -7.974915
v 355.807004 12.748313 -9.605135
v 356.579806 11.685093 -8.792614
v 358.026658 4.336334 -10.376662
v 357.447551 4.135083 -8.703780
v 356.810099 13.486265 -9.252808
v 356.473392 13.288376 -9.697788
v 354.788586 4.135087 -4.312046
v 353.574714 4.336338 -3.023555
v 354.988702 13.957646 -8.580689
v 356.032968 13.177630 -7.452029
v 357.794087 2.356365 -6.672490
v 357.680891 2.265157 -8.444903
v 359.052958 2.552104 -5.910299
v 356.759080 14.217670 -7.247529
v 355.094424 14.564912 -8.364006
v 355.033537 14.177532 -8.631982
v 354.351410 14.026839 -6.726112
v 355.217050 13.082675 -6.581937
v 357.227049 2.356361 -5.736000
v 358.485910 2.552100 -4.973792
v 355.964058 14.217666 -6.016779
v 354.045397 14.564916 -7.359447
v 355.039502 14.026838 -7.862658
v 355.568514 13.082672 -7.162433
v 357.416109 2.356358 -6.048260
v 358.674944 2.552102 -5.286068
v 356.395419 14.217670 -6.729177
v 354.336521 14.564915 -7.840224
v 353.464437 14.091898 -6.634872
v 353.292497 13.996297 -6.376450
v 352.965339 13.907935 -6.221730
v 353.082934 14.076053 -6.513009
v 354.650620 14.091897 -8.593972
v 354.799822 13.996289 -8.866138
v 354.596254 14.076043 -9.012481
v 354.799842 13.907929 -9.251742
v 353.252900 13.932676 -6.478815
v 353.974310 13.901122 -6.699003
v 355.113725 13.946988 -6.168812
v 353.321570 13.793865 -6.366717
v 353.847965 14.264623 -7.428499
v 353.576005 14.248775 -7.487681
v 354.867064 13.901118 -8.173577
v 354.690799 13.932677 -8.853778
v 354.836477 13.793864 -8.868869
v 355.901541 13.946985 -7.470007
v 354.172619 14.264617 -7.964830
v 354.020131 14.248775 -8.221221
v 357.298897 10.389447 -10.205048
v 357.215299 9.081589 -8.723580
v 357.985564 9.190990 -8.407706
v 358.637394 9.283579 -8.140354
v 358.618600 11.005814 -9.673174
v 358.133642 10.721638 -10.202347
v 353.172623 10.381216 -3.509297
v 353.561991 10.713420 -2.770876
v 354.255582 10.997584 -2.586466
v 355.839251 9.283574 -3.518920
v 355.300294 9.190990 -3.972583
v 354.663365 9.081589 -4.508680
v 358.196349 6.977458 -10.464040
v 357.617280 6.776195 -8.791158
v 358.387535 6.885599 -8.475268
v 359.039339 6.978179 -8.207931
v 359.618409 7.179436 -9.880813
v 359.087595 7.081000 -10.433003
v 353.575861 6.977454 -2.832672
v 354.016491 7.081000 -2.057318
v 354.751820 7.179439 -1.842915
v 355.965740 6.978181 -3.131424
v 355.426747 6.885599 -3.585085
v 354.789771 6.776191 -4.121163
v 358.107060 7.681723 -10.487374
v 357.528017 7.480461 -8.814476
v 358.298251 7.589865 -8.498551
v 358.950077 7.682442 -8.231248
v 359.529172 7.883704 -9.904115
v 358.998332 7.785266 -10.456321
v 353.513835 7.681718 -2.900976
v 353.954419 7.785262 -2.125603
v 354.689759 7.883696 -1.911217
v 355.903726 7.682439 -3.199745
v 355.364721 7.589868 -3.653390
v 354.727755 7.480462 -4.189485
v 357.969654 8.765512 -10.523231
v 357.390583 8.564260 -8.850350
v 358.160864 8.673660 -8.534443
v 358.812680 8.766239 -8.267123
v 359.391729 8.967495 -9.939971
v 358.860889 8.869054 -10.492177
v 353.418351 8.765510 -3.006076
v 353.859018 8.869060 -2.230724
v 354.594311 8.967492 -2.016319
v 355.808230 8.766239 -3.304828
v 355.269237 8.673657 -3.758490
v 354.632297 8.564259 -4.294570
v 356.655400 11.574606 -9.815202
v 356.911978 10.592668 -8.526144
v 357.594348 10.911358 -8.251131
v 358.171732 11.181039 -8.018469
v 357.658547 12.604439 -9.462867
v 357.321788 12.114664 -9.907855
v 353.225859 11.544761 -4.256544
v 353.452551 12.084814 -3.623147
v 354.003005 12.574593 -3.530991
v 355.514720 11.172810 -3.749425
v 355.040890 10.903120 -4.153179
v 354.480938 10.584435 -4.630384
v 359.043413 4.370764 -9.291909
v 359.249713 4.469155 -9.218474
v 359.419406 7.110262 -9.305851
v 359.330142 7.814537 -9.329169
v 359.192772 8.898325 -9.365028
v 358.575748 10.614970 -9.049056
v 357.900439 12.159537 -8.773142
v 357.219652 13.599776 -8.813596
v 355.885979 14.595772 -7.926194
v 355.508027 14.595769 -7.301949
v 355.065364 14.595765 -6.570882
v 354.643297 14.595772 -5.873718
v 354.374874 13.569932 -4.220820
v 354.726284 12.129685 -3.636347
v 354.788792 10.606741 -2.913741
v 355.011512 8.898325 -2.459171
v 355.107006 7.814530 -2.354088
v 355.169022 7.110264 -2.285767
v 355.167817 4.469155 -2.476615
v 355.007099 4.370760 -2.625393
v 356.829898 10.817828 -4.721671
v 355.539861 9.098278 -3.587920
v 354.766734 9.726219 -4.261473
v 354.478920 8.630859 -4.488376
v 355.636276 10.347559 -5.444309
v 355.814259 10.347566 -6.093310
v 355.870086 11.487667 -6.138395
v 355.774179 11.487665 -5.624838
v 354.765802 11.466887 -4.896361
v 355.181653 11.636342 -4.615264
v 355.225256 11.229925 -4.377392
v 356.569762 11.801127 -5.143148
v 356.840963 11.796260 -5.612825
v 357.211386 11.796261 -6.224574
v 357.466268 11.801129 -6.623860
v 357.904679 11.779752 -8.167589
v 357.245617 11.636349 -8.024151
v 356.803784 11.466887 -8.262391
v 356.670684 11.487668 -7.105551
v 356.295696 11.487670 -6.841236
v 356.329222 10.347566 -6.943729
v 356.777585 10.347564 -7.329352
v 357.070749 8.636565 -8.686287
v 357.405185 9.731924 -8.536446
v 358.360377 9.103992 -8.163602
v 357.971151 10.817824 -6.606678
v 357.593260 10.817829 -5.982419
v 357.251965 10.817824 -5.418835
v 357.342114 7.933396 -4.410349
v 355.868728 7.139005 -3.324650
v 355.185891 7.516981 -3.914265
v 354.786363 6.767423 -4.240568
v 356.125754 7.558934 -5.146800
v 356.388969 7.558939 -5.812582
v 356.401685 9.270367 -5.883721
v 356.220583 9.270371 -5.353386
v 355.129059 9.233128 -4.726509
v 355.541254 9.367748 -4.424486
v 355.689273 8.931832 -4.168922
v 357.031391 9.519977 -4.862501
v 357.326628 9.516806 -5.364256
v 357.697010 9.516802 -5.976054
v 357.969185 9.519966 -6.411524
v 357.916699 8.931829 -7.847848
v 357.621602 9.367741 -7.860548
v 357.162873 9.233122 -8.085831
v 357.158392 9.270370 -6.902376
v 356.807999 9.270367 -6.554810
v 356.884552 7.558934 -6.631228
v 357.308383 7.558934 -7.100088
v 357.459710 6.771140 -8.602075
v 357.934070 7.520706 -8.399253
v 358.773011 7.142721 -8.067523
v 358.524727 7.933395 -6.363670
v 358.146800 7.933399 -5.739409
v 357.764206 7.933399 -5.107497
v 356.496397 12.677310 -4.901015
v 355.329137 10.705489 -3.756567
v 354.498272 11.493550 -4.483871
v 354.281963 10.176679 -4.647115
v 355.322789 12.133832 -5.634910
v 355.446208 12.133832 -6.273135
v 355.926131 12.349281 -6.273250
v 355.871938 12.429932 -5.778249
v 355.059198 12.392799 -4.567459
v 355.255648 12.749783 -4.765092
v 355.176915 12.386340 -4.572065
v 356.011831 13.090068 -5.399834
v 356.270387 13.079613 -5.847308
v 356.713327 13.079610 -6.578889
v 356.954427 13.090072 -6.956614
v 357.255877 12.386344 -8.005724
v 357.453064 12.749790 -8.000599
v 357.205380 12.392805 -8.112200
v 356.554274 12.429942 -6.905172
v 356.176316 12.349281 -6.686468
v 355.973374 12.133833 -7.143886
v 356.437580 12.133832 -7.476152
v 356.821583 10.183670 -8.740243
v 357.066452 11.500535 -8.624286
v 358.096051 10.712468 -8.225162
v 357.631868 12.677305 -6.776414
v 357.353773 12.677313 -6.286691
v 356.845577 12.677305 -5.447328
vt 0.460238 0.815369
vt 0.536489 0.875030
vt 0.535235 0.912584
vt 0.487082 0.885682
vt 0.481643 0.907191
vt 0.533350 0.942367
vt 0.521782 0.951867
vt 0.610514 0.424269
vt 0.607390 0.401042
vt 0.553315 0.416895
vt 0.568806 0.374566
vt 0.632967 0.355849
vt 0.670503 0.221920
vt 0.617735 0.225206
vt 0.656283 0.089792
vt 0.704580 0.099206
vt 0.448179 0.465926
vt 0.506078 0.030811
vt 0.472203 0.632876
vt 0.683011 0.240078
vt 0.462082 0.049977
vt 0.536308 0.657265
vt 0.682914 0.468390
vt 0.301855 0.037225
vt 0.704851 0.650902
vt 0.675688 0.633624
vt 0.678756 0.816645
vt 0.725094 0.802681
vt 0.732251 0.824187
vt 0.718985 0.838041
vt 0.265147 0.353756
vt 0.291344 0.400196
vt 0.257302 0.386499
vt 0.229396 0.349891
vt 0.663185 0.925148
vt 0.656119 0.905875
vt 0.680440 0.885825
vt 0.259934 0.411567
vt 0.650945 0.885188
vt 0.685700 0.854500
vt 0.414345 0.798933
vt 0.419531 0.836003
vt 0.671133 0.330523
vt 0.452702 0.853567
vt 0.448953 0.910123
vt 0.457641 0.885624
vt 0.669571 0.352718
vt 0.640633 0.388350
vt 0.343256 0.417414
vt 0.325412 0.374762
vt 0.235549 0.090947
vt 0.275859 0.225659
vt 0.226156 0.221008
vt 0.189448 0.099299
vt 0.615085 0.657462
vt 0.612742 0.466124
vt 0.604188 0.914081
vt 0.604659 0.875738
vt 0.342042 0.422181
vt 0.604821 0.945243
vt 0.531785 0.408579
vt 0.554358 0.372342
vt 0.597062 0.219985
vt 0.635629 0.085056
vt 0.564426 0.657609
vt 0.444651 0.051665
vt 0.558007 0.875912
vt 0.558519 0.912834
vt 0.362121 0.409495
vt 0.338003 0.373179
vt 0.254132 0.086875
vt 0.294274 0.221277
vt 0.589929 0.657605
vt 0.587048 0.466001
vt 0.583519 0.913560
vt 0.584632 0.875445
vt 0.498544 0.370008
vt 0.459712 0.363817
vt 0.480913 0.427133
vt 0.497797 0.380289
vt 0.502198 0.419033
vt 0.501384 0.387724
vt 0.502842 0.396520
vt 0.500893 0.419321
vt 0.535116 0.378847
vt 0.500600 0.370112
vt 0.545316 0.341877
vt 0.511189 0.332265
vt 0.502801 0.337286
vt 0.498285 0.329503
vt 0.500863 0.359125
vt 0.466092 0.341934
vt 0.390266 0.328963
vt 0.387209 0.336527
vt 0.388616 0.360009
vt 0.392535 0.369727
vt 0.390926 0.416825
vt 0.388410 0.393585
vt 0.385767 0.368215
vt 0.355656 0.379074
vt 0.345299 0.342736
vt 0.377627 0.331915
vt 0.428779 0.362550
vt 0.421030 0.340566
vt 0.405533 0.425954
vt 0.392643 0.379277
vt 0.396088 0.433994
vt 0.390519 0.385286
vt 0.526209 0.408723
vt 0.545100 0.381426
vt 0.556633 0.344926
vt 0.453379 0.343782
vt 0.447750 0.366468
vt 0.460656 0.424725
vt 0.368372 0.409101
vt 0.347626 0.382047
vt 0.335482 0.346012
vt 0.438866 0.365094
vt 0.432314 0.341907
vt 0.423193 0.424270
vt 0.477813 0.440607
vt 0.507192 0.417865
vt 0.507081 0.428145
vt 0.521552 0.973086
vt 0.585970 0.142751
vt 0.546544 0.119240
vt 0.529788 0.117452
vt 0.515457 0.115529
vt 0.464896 0.122179
vt 0.369968 0.115775
vt 0.355743 0.118183
vt 0.338935 0.120564
vt 0.301836 0.144056
vt 0.418055 0.121771
vt 0.384432 0.415380
vt 0.408056 0.439418
vt 0.405643 0.449882
vt 0.334530 0.428921
vt 0.510159 0.417126
vt 0.519627 0.411495
vt 0.538020 0.423212
vt 0.553975 0.421362
vt 0.577191 0.259754
vt 0.604357 0.151342
vt 0.443546 0.122981
vt 0.452631 0.433502
vt 0.556885 0.976161
vt 0.373775 0.411128
vt 0.382448 0.414505
vt 0.380387 0.419926
vt 0.355809 0.423864
vt 0.285807 0.153179
vt 0.314238 0.261358
vt 0.437278 0.122636
vt 0.430577 0.433903
vt 0.429250 0.442322
vt 0.561737 0.956810
vt 0.578942 0.957462
vt 0.181335 0.364151
vt 0.223238 0.399337
vt 0.179903 0.419409
vt 0.165174 0.370611
vt 0.817922 0.842588
vt 0.798519 0.836374
vt 0.791978 0.858602
vt 0.810690 0.866597
vt 0.740163 0.876981
vt 0.799300 0.905325
vt 0.725842 0.922532
vt 0.727457 0.895449
vt 0.793893 0.925215
vt 0.185268 0.445074
vt 0.352122 0.941181
vt 0.412128 0.921068
vt 0.672878 0.402197
vt 0.715874 0.418048
vt 0.411706 0.893959
vt 0.345309 0.915289
vt 0.346179 0.849323
vt 0.399220 0.875864
vt 0.339541 0.895491
vt 0.327805 0.856935
vt 0.341072 0.827073
vt 0.743043 0.347361
vt 0.717002 0.362591
vt 0.732575 0.369810
vt 0.112979 0.388719
vt 0.133427 0.436540
vt 0.059396 0.455090
vt 0.043111 0.412390
vt 0.035107 0.392851
vt 0.883123 0.857329
vt 0.873536 0.881287
vt 0.959825 0.901183
vt 0.859310 0.920643
vt 0.951124 0.937291
vt 0.141582 0.460953
vt 0.852501 0.940937
vt 0.943506 0.956640
vt 0.947594 0.982663
vt 0.829490 0.478654
vt 0.287612 0.958183
vt 0.762530 0.436400
vt 0.836574 0.455795
vt 0.286045 0.930765
vt 0.194910 0.945981
vt 0.265224 0.871133
vt 0.279355 0.910481
vt 0.187400 0.926626
vt 0.178856 0.890538
vt 0.791941 0.366446
vt 0.163072 0.873493
vt 0.783927 0.389036
vt 0.853396 0.413385
vt 0.133315 0.381506
vt 0.151891 0.429321
vt 0.856846 0.850963
vt 0.849388 0.875221
vt 0.835829 0.914531
vt 0.159242 0.453897
vt 0.829196 0.935284
vt 0.314058 0.952292
vt 0.744035 0.428784
vt 0.309488 0.925216
vt 0.289323 0.865233
vt 0.302925 0.904526
vt 0.773485 0.359451
vt 0.763830 0.381542
vt 0.029217 0.399701
vt 0.967385 0.906883
vt 0.952276 0.956591
vt 0.953091 0.978930
vt 0.959430 0.939473
vt 0.171272 0.896200
vt 0.156928 0.882166
vt 0.179084 0.928774
vt 0.834914 0.477077
vt 0.186140 0.945885
vt 0.052358 0.455465
vt 0.038152 0.416968
vt 0.858301 0.417989
vt 0.843622 0.456229
vt 0.469275 0.702125
vt 0.532211 0.759475
vt 0.525713 0.824427
vt 0.464977 0.759919
vt 0.438110 0.724832
vt 0.648194 0.340102
vt 0.655747 0.274941
vt 0.644534 0.316886
vt 0.585221 0.347274
vt 0.599030 0.299853
vt 0.579781 0.296169
vt 0.568291 0.345223
vt 0.565031 0.322595
vt 0.562099 0.253980
vt 0.551561 0.316958
vt 0.519982 0.309457
vt 0.529071 0.248687
vt 0.515550 0.246162
vt 0.506957 0.311375
vt 0.510802 0.231674
vt 0.504252 0.298864
vt 0.468368 0.238373
vt 0.465205 0.302326
vt 0.452559 0.304184
vt 0.452157 0.239184
vt 0.435936 0.302003
vt 0.432189 0.237847
vt 0.425120 0.300286
vt 0.417700 0.237586
vt 0.390145 0.309361
vt 0.376630 0.231712
vt 0.372023 0.245551
vt 0.377009 0.311841
vt 0.365029 0.310122
vt 0.358396 0.248548
vt 0.327197 0.254775
vt 0.337559 0.318290
vt 0.326259 0.323925
vt 0.311452 0.297479
vt 0.323309 0.346330
vt 0.294488 0.300329
vt 0.308498 0.347572
vt 0.241630 0.273710
vt 0.253238 0.315524
vt 0.713807 0.773358
vt 0.705404 0.726821
vt 0.675220 0.702719
vt 0.676814 0.760257
vt 0.619954 0.825548
vt 0.615883 0.759829
vt 0.595671 0.822075
vt 0.588251 0.759605
vt 0.553612 0.820884
vt 0.563164 0.759473
vt 0.249559 0.338381
vt 0.264737 0.353371
vt 0.427318 0.770983
vt 0.663720 0.298857
vt 0.213992 0.239191
vt 0.233892 0.297493
vt 0.442304 0.648846
vt 0.583206 0.035205
vt 0.407052 0.821142
vt 0.633352 0.355513
vt 0.637718 0.413415
vt 0.667059 0.427109
vt 0.688685 0.910413
vt 0.287701 0.423249
vt 0.226796 0.327847
vt 0.172370 0.342590
vt 0.190611 0.971966
vt 0.185143 0.968186
vt 0.861561 0.393906
vt 0.867400 0.400777
vt 0.066282 0.478032
vt 0.060877 0.476410
vt 0.975683 0.884208
vt 0.981795 0.892900
vt 0.320994 0.832727
vt 0.726251 0.341176
vt 0.710568 0.443846
vt 0.736399 0.453213
vt 0.786041 0.950860
vt 0.229305 0.424448
vt 0.155426 0.347888
vt 0.124168 0.359162
vt 0.281962 0.840937
vt 0.754094 0.460689
vt 0.824175 0.962294
vt 0.105299 0.365984
vt 0.255705 0.847150
vt 0.850632 0.968344
vt 0.402127 0.446121
vt 0.629927 0.979029
vt 0.615609 0.954049
vt 0.401816 0.415985
vt 0.389659 0.416557
vt 0.474480 0.927584
vt 0.360882 0.024251
vt 0.348977 0.108448
vt 0.357578 0.109466
vt 0.527801 0.109134
vt 0.536427 0.107185
vt 0.286106 0.049058
vt 0.706852 0.468034
vt 0.168526 0.105948
vt 0.599112 0.046825
vt 0.523983 0.023966
vt 0.725680 0.105454
vt 0.574197 0.465946
vt 0.436817 0.051210
vt 0.421099 0.049338
vt 0.268554 0.082370
vt 0.545512 0.465844
vt 0.618918 0.080689
vt 0.378815 0.031010
vt 0.472081 0.467295
vt 0.509029 0.974832
vt 0.563820 0.426198
vt 0.512951 0.421643
vt 0.398729 0.456918
vt 0.386944 0.427625
vt 0.343079 0.422115
vt 0.452727 0.440677
vt 0.584502 0.977093
vt 0.617477 0.976977
vt 0.476609 0.445365
vt 0.476565 0.445141
vt 0.618233 0.956265
vt 0.523480 0.950426
vt 0.554722 0.421716
vt 0.482209 0.445639
vt 0.481184 0.454993
vt 0.490328 0.418421
vt 0.489307 0.435961
vn 0.475875 0.464464 0.746871
vn 0.446522 0.646883 0.618191
vn -0.056780 0.914954 0.399545
vn 0.240444 0.695692 0.676905
vn -0.554908 0.761210 0.335613
vn -0.554908 0.761210 0.335613
vn -0.892860 0.449903 0.019687
vn -0.642933 0.714348 0.276305
vn -0.194892 -0.580227 -0.790793
vn -0.206589 -0.590760 -0.779951
vn -0.578749 -0.371741 -0.725850
vn -0.278716 -0.496756 -0.821919
vn -0.476342 -0.098249 -0.873754
vn -0.644597 -0.117984 -0.755364
vn -0.635055 -0.089223 -0.767297
vn -0.480482 -0.061564 -0.874841
vn -0.635477 -0.041065 0.771027
vn -0.654860 -0.043039 0.754523
vn -0.655871 -0.033872 0.754113
vn -0.645418 -0.029770 0.763249
vn 0.519549 0.071930 0.851408
vn 0.639670 0.091516 0.763182
vn 0.647118 0.121708 0.752612
vn 0.515913 0.108576 0.849732
vn 0.370485 -0.012939 -0.928748
vn 0.382264 -0.011767 -0.923978
vn 0.377163 0.002990 -0.926142
vn 0.373855 0.000527 -0.927487
vn -0.389944 -0.074721 0.917802
vn -0.493372 -0.055685 0.868034
vn -0.364730 -0.117841 0.923626
vn -0.360984 -0.114790 0.925480
vn -0.886601 -0.462273 -0.015593
vn -0.886601 -0.462273 -0.015593
vn -0.912178 -0.402616 -0.076373
vn -0.936395 -0.310687 -0.163215
vn -0.124444 0.092720 -0.987885
vn 0.442911 0.515543 -0.733516
vn 0.494010 0.431216 -0.754988
vn 0.117600 0.327633 -0.937458
vn 0.806470 0.520863 -0.279836
vn 0.936503 0.327043 -0.126514
vn 0.947065 0.301936 0.109104
vn 0.923781 0.381554 0.032331
vn 0.539965 -0.056416 -0.839795
vn 0.632236 -0.076743 -0.770966
vn 0.638617 -0.025306 -0.769109
vn 0.634936 -0.029776 -0.771991
vn 0.321826 0.327710 0.888276
vn 0.125654 0.521065 0.844217
vn 0.459895 0.379907 0.802601
vn 0.550858 0.292519 0.781657
vn -0.444648 0.515551 0.732458
vn -0.933058 0.092693 0.347579
vn -0.775089 0.331443 0.537943
vn -0.441600 0.434884 0.784771
vn -0.420893 -0.462204 -0.780523
vn -0.420893 -0.462204 -0.780523
vn -0.587506 -0.290259 -0.755372
vn -0.490858 -0.396297 -0.775891
vn -0.790621 -0.583855 0.184477
vn -0.794209 -0.574513 0.197905
vn -0.858047 -0.493921 0.140704
vn -0.909719 -0.380842 -0.165442
vn -0.979620 -0.094942 -0.177006
vn -0.971782 -0.124265 -0.200495
vn -0.994232 -0.106776 0.010122
vn -0.997364 -0.072151 0.007755
vn 0.969707 0.127923 0.208097
vn 0.977430 0.097165 0.187588
vn 0.995736 0.081249 0.043681
vn 0.992343 0.115987 0.042467
vn 0.321347 0.911894 -0.255315
vn 0.747199 0.656315 0.104614
vn 0.880861 0.466744 0.078962
vn 0.716135 0.692068 -0.090511
vn -0.380871 0.418772 -0.824359
vn 0.064462 0.753389 -0.654408
vn 0.064462 0.753389 -0.654408
vn -0.012408 0.713293 -0.700756
vn -0.490356 -0.786943 -0.374528
vn -0.562948 -0.745186 -0.357473
vn -0.904158 -0.165694 -0.393757
vn -0.885008 -0.136946 -0.444978
vn 0.845050 0.155330 0.511628
vn 0.848559 0.126568 0.513739
vn 0.559669 0.759341 0.331920
vn 0.132304 0.988024 0.079397
vn -0.566274 -0.784578 -0.252530
vn -0.580747 -0.746715 -0.324268
vn -0.798946 -0.135027 -0.586048
vn -0.755648 -0.162580 -0.634479
vn 0.845009 0.155609 0.511611
vn 0.848548 0.126567 0.513757
vn 0.132510 0.987868 0.080985
vn 0.553509 0.759287 0.342216
vn -0.176127 0.048653 -0.983164
vn -0.172538 0.072630 -0.982322
vn -0.484623 0.297759 -0.822484
vn -0.484623 0.297759 -0.822484
vn -0.942552 0.324235 -0.080413
vn -0.942552 0.324235 -0.080413
vn -0.952832 0.048614 0.299579
vn -0.950531 0.073418 0.301828
vn 0.531860 -0.054669 -0.845066
vn 0.576454 -0.027219 -0.816676
vn -0.619014 -0.039400 0.784391
vn -0.621894 -0.028272 0.782591
vn 0.391333 -0.010859 -0.920185
vn 0.379692 -0.000796 -0.925112
vn -0.501920 -0.054020 0.863226
vn -0.425439 -0.108122 0.898505
vn -0.174796 -0.887798 -0.425747
vn -0.142299 -0.917052 -0.372514
vn -0.242590 -0.953207 -0.180405
vn -0.406331 -0.698643 -0.588892
vn 0.717494 -0.563016 -0.410140
vn 0.710590 -0.574498 -0.406218
vn 0.686732 -0.611732 -0.392662
vn 0.717494 -0.563016 -0.410140
vn 0.108062 0.940443 0.322318
vn 0.499701 0.750420 0.432630
vn 0.625814 0.716098 0.309128
vn 0.146251 0.940815 0.305743
vn 0.766253 0.279923 0.578359
vn 0.808589 0.294087 0.509605
vn 0.991550 0.067239 0.110938
vn -0.231752 -0.288806 -0.928914
vn -0.163813 0.068804 0.984089
vn 0.730217 0.043996 0.681797
vn -0.427507 -0.408710 -0.806346
vn -0.539917 -0.363977 -0.758954
vn 0.267204 -0.230340 -0.935706
vn 0.232647 -0.215768 -0.948325
vn -0.827086 -0.526215 0.197551
vn -0.448840 -0.131820 0.883836
vn 0.347808 0.937555 0.004540
vn 0.560434 0.708357 0.429121
vn 0.621984 0.741613 0.251289
vn 0.347703 0.936779 -0.039342
vn 0.824829 0.303431 0.477060
vn 0.869928 0.283063 0.403856
vn -0.716416 -0.694868 -0.062503
vn -0.466842 -0.883683 0.034103
vn -0.847674 -0.530434 0.009355
vn -0.837828 -0.519173 -0.168828
vn -0.271302 -0.952551 -0.137992
vn -0.407102 -0.912797 0.032694
vn -0.065002 -0.584378 0.808874
vn -0.081845 -0.567634 0.819203
vn -0.085513 -0.563929 0.821384
vn -0.085513 -0.563929 0.821384
vn 0.545214 0.831180 0.108997
vn 0.476173 0.869214 0.133139
vn 0.946818 0.320457 0.029048
vn -0.393603 -0.891465 -0.224426
vn -0.765607 -0.460118 -0.449598
vn -0.260495 -0.954550 -0.144830
vn 0.321043 0.869556 0.375238
vn 0.326277 0.834042 0.444879
vn 0.409192 0.285289 0.866702
vn -0.381232 -0.891267 -0.245570
vn -0.753310 -0.459137 -0.470869
vn -0.248639 -0.954553 -0.164340
vn -0.048404 -0.600454 0.798193
vn -0.048404 -0.600454 0.798193
vn 0.662577 -0.646066 -0.378934
vn 0.662577 -0.646066 -0.378934
vn 0.059329 -0.028489 -0.997832
vn 0.045523 -0.138214 -0.989356
vn -0.431885 0.050141 0.900534
vn -0.464595 0.062449 0.883319
vn -0.045090 -0.891225 -0.451315
vn -0.045090 -0.891225 -0.451315
vn -0.045090 -0.891225 -0.451315
vn -0.045090 -0.891225 -0.451315
vn 0.511154 0.018390 0.859292
vn 0.511154 0.018390 0.859292
vn 0.511154 0.018390 0.859292
vn 0.511154 0.018390 0.859292
vn 0.651039 -0.192580 -0.734208
vn 0.651039 -0.192580 -0.734208
vn 0.651039 -0.192580 -0.734208
vn 0.651039 -0.192580 -0.734208
vn -0.530666 -0.177944 -0.828691
vn -0.530666 -0.177944 -0.828691
vn -0.530666 -0.177944 -0.828691
vn -0.530666 -0.177944 -0.828691
vn -0.348804 -0.192586 0.917195
vn -0.348804 -0.192586 0.917195
vn -0.348804 -0.192586 0.917195
vn -0.348804 -0.192586 0.917195
vn 0.999403 0.024308 0.024567
vn 0.999403 0.024308 0.024567
vn 0.999403 0.024308 0.024567
vn 0.999403 0.024308 0.024567
vn -0.981507 -0.181342 -0.061318
vn -0.981507 -0.181342 -0.061318
vn -0.981507 -0.181342 -0.061318
vn -0.981507 -0.181342 -0.061318
vn -0.449349 -0.881572 0.144623
vn -0.449349 -0.881572 0.144623
vn -0.449349 -0.881572 0.144623
vn -0.449349 -0.881572 0.144623
vn 0.045068 -0.973178 -0.225595
vn 0.045068 -0.973178 -0.225595
vn 0.045068 -0.973178 -0.225595
vn 0.045068 -0.973178 -0.225595
vn -0.064592 -0.200332 -0.977597
vn -0.064592 -0.200332 -0.977597
vn -0.064592 -0.200332 -0.977597
vn -0.064592 -0.200332 -0.977597
vn -0.038735 -0.045620 -0.998208
vn -0.193290 -0.044016 -0.980154
vn -0.193290 -0.044016 -0.980154
vn -0.051380 -0.045530 -0.997641
vn 0.854635 0.043038 0.517443
vn 0.854635 0.043038 0.517443
vn 0.854635 0.043038 0.517443
vn 0.854635 0.043038 0.517443
vn -0.834569 -0.219589 -0.505247
vn -0.834569 -0.219589 -0.505247
vn -0.834569 -0.219589 -0.505247
vn -0.834570 -0.219589 -0.505247
vn 0.030737 -0.983741 -0.176941
vn 0.030737 -0.983741 -0.176941
vn 0.030737 -0.983741 -0.176941
vn 0.030737 -0.983741 -0.176941
vn -0.168522 -0.973032 0.157511
vn -0.168522 -0.973032 0.157511
vn -0.168522 -0.973032 0.157511
vn -0.168522 -0.973032 0.157511
vn -0.906090 -0.315530 0.281855
vn -0.906090 -0.315530 0.281855
vn -0.906090 -0.315530 0.281855
vn -0.906090 -0.315530 0.281855
vn -0.935462 -0.056719 0.348846
vn -0.875342 -0.063028 0.479379
vn -0.881143 -0.062544 0.468695
vn -0.935462 -0.056719 0.348846
vn 0.854623 0.043042 0.517462
vn 0.854623 0.043042 0.517462
vn 0.854623 0.043042 0.517462
vn 0.854623 0.043042 0.517462
vn -0.834525 -0.219588 -0.505321
vn -0.834525 -0.219588 -0.505321
vn -0.834525 -0.219588 -0.505321
vn -0.834525 -0.219588 -0.505321
vn -0.182990 -0.977808 0.102008
vn -0.182990 -0.977808 0.102008
vn -0.182990 -0.977808 0.102008
vn -0.182990 -0.977808 0.102008
vn -0.834576 -0.219586 -0.505237
vn -0.834576 -0.219586 -0.505237
vn -0.834576 -0.219586 -0.505237
vn -0.834576 -0.219586 -0.505237
vn 0.051392 -0.998194 0.031117
vn 0.051392 -0.998194 0.031117
vn 0.051392 -0.998194 0.031117
vn 0.051392 -0.998194 0.031117
vn -0.953174 -0.169216 -0.250650
vn -0.953174 -0.169216 -0.250650
vn -0.953174 -0.169216 -0.250650
vn -0.953174 -0.169216 -0.250650
vn -0.654625 -0.129824 -0.744722
vn -0.654625 -0.129824 -0.744722
vn -0.654625 -0.129824 -0.744722
vn -0.654625 -0.129824 -0.744722
vn 0.651023 -0.192580 -0.734222
vn 0.651023 -0.192580 -0.734222
vn 0.651023 -0.192580 -0.734222
vn 0.651023 -0.192580 -0.734222
vn -0.348799 -0.192579 0.917198
vn -0.348799 -0.192579 0.917198
vn -0.348799 -0.192579 0.917198
vn -0.348799 -0.192579 0.917198
vn 0.482636 -0.824435 -0.295584
vn 0.482636 -0.824434 -0.295584
vn 0.482636 -0.824435 -0.295584
vn 0.482636 -0.824435 -0.295584
vn -0.375526 0.673462 0.636733
vn -0.375526 0.673462 0.636733
vn -0.375526 0.673462 0.636733
vn -0.375526 0.673462 0.636733
vn -0.033753 -0.821687 0.568938
vn -0.033753 -0.821687 0.568938
vn -0.033753 -0.821687 0.568938
vn -0.033753 -0.821687 0.568938
vn 0.390028 0.673530 -0.627882
vn 0.390028 0.673530 -0.627882
vn 0.390028 0.673530 -0.627882
vn 0.390028 0.673530 -0.627882
vn -0.295109 0.466279 -0.833963
vn -0.295109 0.466279 -0.833963
vn -0.295109 0.466279 -0.833963
vn -0.295109 0.466279 -0.833963
vn 0.221111 -0.787338 -0.575507
vn 0.221112 -0.787338 -0.575507
vn 0.221112 -0.787338 -0.575507
vn 0.221112 -0.787338 -0.575507
vn -0.051737 0.899135 0.434603
vn -0.051737 0.899135 0.434603
vn -0.051737 0.899135 0.434603
vn -0.051737 0.899135 0.434603
vn 0.575761 -0.793046 0.198940
vn 0.575761 -0.793046 0.198940
vn 0.575761 -0.793046 0.198940
vn 0.575761 -0.793046 0.198940
vn -0.516797 0.850671 -0.096329
vn -0.516797 0.850671 -0.096329
vn -0.516797 0.850671 -0.096329
vn -0.516797 0.850671 -0.096329
vn -0.905558 0.382180 0.184127
vn -0.905558 0.382180 0.184127
vn -0.905558 0.382180 0.184127
vn -0.905558 0.382180 0.184127
vn 0.348184 0.895390 -0.277569
vn 0.348184 0.895390 -0.277569
vn 0.348184 0.895390 -0.277569
vn 0.348184 0.895390 -0.277569
vn -0.370506 -0.771381 0.517393
vn -0.370506 -0.771381 0.517393
vn -0.370506 -0.771382 0.517393
vn -0.370506 -0.771381 0.517393
vn 0.430538 -0.793569 0.429983
vn 0.430538 -0.793569 0.429983
vn 0.430538 -0.793569 0.429983
vn 0.430538 -0.793569 0.429983
vn -0.307086 0.852275 -0.423468
vn -0.307086 0.852275 -0.423468
vn -0.307086 0.852275 -0.423468
vn -0.307086 0.852275 -0.423468
vn 0.329896 -0.922648 0.199721
vn 0.329896 -0.922648 0.199721
vn 0.329896 -0.922648 0.199721
vn 0.329896 -0.922648 0.199721
vn -0.478859 0.828629 -0.289943
vn -0.478859 0.828629 -0.289943
vn -0.478859 0.828629 -0.289943
vn -0.478859 0.828629 -0.289943
vn -0.510889 0.845074 -0.157615
vn -0.510889 0.845074 -0.157615
vn -0.510889 0.845074 -0.157615
vn -0.510889 0.845074 -0.157615
vn 0.915971 -0.326219 -0.233620
vn 0.915971 -0.326219 -0.233620
vn 0.915971 -0.326219 -0.233620
vn 0.915971 -0.326219 -0.233620
vn -0.377817 0.844774 -0.378961
vn -0.377817 0.844774 -0.378961
vn -0.377817 0.844774 -0.378961
vn -0.377817 0.844774 -0.378961
vn 0.217531 -0.326029 0.919992
vn 0.217531 -0.326029 0.919992
vn 0.217531 -0.326029 0.919992
vn 0.217531 -0.326029 0.919992
vn -0.924501 -0.290055 -0.247318
vn -0.930486 -0.290346 -0.223373
vn -0.917869 -0.215737 -0.333128
vn -0.917282 -0.218539 -0.332918
vn -0.361676 -0.122335 0.924243
vn -0.328750 -0.202788 0.922389
vn -0.325799 -0.212611 0.921223
vn -0.360206 -0.130973 0.923633
vn -0.330085 -0.210593 0.920160
vn -0.363141 -0.113530 0.924791
vn 0.921146 0.302523 0.244887
vn 0.921248 0.269268 0.280708
vn 0.920335 0.202071 0.334890
vn 0.921201 0.212774 0.325753
vn 0.260138 0.298898 -0.918144
vn 0.607740 0.351291 -0.712213
vn 0.675948 0.202485 -0.708586
vn 0.467543 0.211379 -0.858325
vn -0.120692 0.168355 -0.978310
vn -0.004999 0.109685 -0.993954
vn -0.506862 0.126353 0.852717
vn -0.710958 0.205592 0.672511
vn -0.927424 0.139277 0.347113
vn -0.874985 -0.002795 0.484143
vn -0.331303 0.239255 0.912686
vn -0.299804 0.127852 0.945395
vn 0.684767 0.263665 0.679393
vn 0.645489 0.297734 0.703348
vn 0.717562 0.210024 0.664074
vn 0.722990 0.203731 0.660136
vn 0.649779 -0.071904 -0.756714
vn 0.651592 -0.124164 -0.748339
vn 0.651121 -0.113463 -0.750445
vn 0.651318 -0.122327 -0.748880
vn 0.648949 -0.056848 -0.758705
vn 0.651458 -0.130966 -0.747295
vn -0.627618 -0.277907 -0.727230
vn -0.659619 -0.282462 -0.696505
vn -0.719925 -0.219737 -0.658349
vn -0.719435 -0.222670 -0.657899
vn -0.944694 -0.007171 -0.327874
vn -0.945574 0.022168 -0.324652
vn -0.945644 0.050134 -0.321315
vn -0.945644 0.050134 -0.321315
vn -0.385567 0.055246 0.921024
vn -0.383912 0.038948 0.922548
vn -0.384593 0.045727 0.921953
vn -0.385561 0.055246 0.921027
vn -0.381774 0.019610 0.924048
vn -0.385609 0.055249 0.921007
vn 0.945448 -0.015757 0.325391
vn 0.944687 0.007163 0.327894
vn 0.945638 -0.050133 0.321335
vn 0.945648 -0.050131 0.321303
vn 0.580949 -0.049169 -0.812453
vn 0.721179 -0.002974 -0.692742
vn 0.725324 -0.069265 -0.684914
vn 0.135076 -0.041434 -0.989969
vn 0.038805 -0.034579 -0.998648
vn 0.038915 -0.035541 -0.998610
vn -0.814614 -0.041443 0.578521
vn -0.450607 -0.049168 0.891367
vn -0.866924 -0.034589 0.497239
vn -0.866840 -0.035552 0.497318
vn -0.279550 -0.002994 0.960126
vn -0.270705 -0.069266 0.960167
vn 0.728406 0.007176 0.685108
vn 0.726547 -0.015749 0.686937
vn 0.723028 -0.050125 0.688998
vn 0.723037 -0.050128 0.688989
vn 0.639529 0.038942 -0.767780
vn 0.641846 0.019599 -0.766583
vn 0.637395 0.055243 -0.768555
vn 0.637376 0.055252 -0.768569
vn 0.638645 0.045731 -0.768142
vn 0.637373 0.055253 -0.768572
vn -0.725954 0.022159 -0.687386
vn -0.728403 -0.007181 -0.685112
vn -0.723030 0.050115 -0.688997
vn -0.723030 0.050115 -0.688997
vn -0.932133 -0.129376 -0.338215
vn -0.932133 -0.129375 -0.338215
vn -0.377307 -0.017184 0.925929
vn -0.377319 -0.017188 0.925924
vn -0.377292 -0.017179 0.925935
vn 0.932133 0.129349 0.338227
vn 0.932127 0.129348 0.338244
vn 0.373323 0.016632 -0.927552
vn 0.713256 0.067344 -0.697661
vn 0.038080 -0.028234 -0.998876
vn -0.649013 0.016598 0.760597
vn -0.867452 -0.028234 0.496719
vn -0.287571 0.067325 0.955390
vn 0.731743 0.129357 0.669193
vn 0.731745 0.129356 0.669190
vn 0.645561 -0.017182 -0.763516
vn 0.645566 -0.017176 -0.763511
vn 0.645556 -0.017187 -0.763520
vn -0.731746 -0.129350 -0.669191
vn -0.731746 -0.129350 -0.669191
vn 0.031075 -0.965491 0.258577
vn 0.031075 -0.965491 0.258577
vn 0.031075 -0.965491 0.258577
vn 0.031075 -0.965491 0.258577
vn 0.387390 -0.904443 -0.178637
vn 0.387390 -0.904443 -0.178637
vn 0.387390 -0.904443 -0.178637
vn 0.387390 -0.904443 -0.178637
vn 0.459398 -0.887331 0.039960
vn 0.469967 -0.881568 0.044370
vn 0.469967 -0.881568 0.044370
vn 0.426907 -0.903905 0.026556
vn 0.243544 -0.965487 -0.092306
vn 0.243544 -0.965487 -0.092306
vn 0.243545 -0.965487 -0.092306
vn 0.243544 -0.965487 -0.092306
vn 0.257131 -0.881580 0.395854
vn 0.248328 -0.887342 0.388533
vn 0.221400 -0.903912 0.365958
vn 0.257131 -0.881580 0.395854
vn 0.021263 -0.904436 0.426079
vn 0.021263 -0.904436 0.426079
vn 0.021263 -0.904436 0.426079
vn 0.021263 -0.904436 0.426079
vn -0.124263 -0.977054 -0.172985
vn -0.124263 -0.977054 -0.172985
vn -0.124263 -0.977054 -0.172985
vn -0.124263 -0.977054 -0.172985
vn -0.210930 -0.977042 -0.029976
vn -0.210930 -0.977042 -0.029976
vn -0.210930 -0.977042 -0.029976
vn -0.210930 -0.977042 -0.029976
vn 0.099480 -0.942881 -0.317931
vn 0.099480 -0.942881 -0.317931
vn 0.099480 -0.942881 -0.317931
vn 0.099480 -0.942881 -0.317931
vn -0.235657 -0.942867 0.235515
vn -0.235657 -0.942867 0.235515
vn -0.235657 -0.942867 0.235515
vn -0.235657 -0.942867 0.235515
vn 0.243531 -0.965490 -0.092314
vn 0.243531 -0.965490 -0.092314
vn 0.243531 -0.965490 -0.092314
vn 0.243531 -0.965490 -0.092314
vn 0.031088 -0.965492 0.258569
vn 0.031088 -0.965492 0.258569
vn 0.031088 -0.965492 0.258569
vn 0.031088 -0.965492 0.258569
vn 0.397334 -0.917559 0.014546
vn 0.397334 -0.917559 0.014546
vn 0.945585 -0.022183 0.324618
vn 0.945658 -0.050130 0.321277
vn 0.932143 0.129350 0.338199
vn 0.919539 0.242537 0.309231
vn 0.897126 0.400341 0.186794
vn 0.821850 0.529175 -0.211037
vn 0.787687 0.540358 -0.295911
vn 0.032615 0.993195 -0.111807
vn 0.267457 0.822651 -0.501710
vn -0.020682 0.999688 -0.013979
vn -0.022122 0.999685 -0.011857
vn -0.085843 0.992840 0.083065
vn -0.315034 0.832276 0.456147
vn 0.102900 0.540347 0.835127
vn 0.193540 0.529595 0.825876
vn 0.572338 0.409720 0.710323
vn 0.699417 0.240938 0.672878
vn 0.731750 0.129357 0.669185
vn 0.725948 -0.022156 0.687393
vn 0.723021 -0.050123 0.689005
vn 0.197060 -0.917562 0.345322
vn 0.197060 -0.917562 0.345322
vn 0.515494 0.176526 0.838513
vn 0.628414 0.192173 0.753767
vn 0.641356 0.264540 0.720195
vn 0.532754 0.186311 0.825507
vn -0.645113 -0.003029 0.764081
vn -0.659279 -0.007648 0.751860
vn -0.615355 0.088565 0.783258
vn -0.603287 0.091488 0.792259
vn -0.624782 0.002186 0.780796
vn -0.607529 0.037646 0.793405
vn -0.484968 -0.194398 -0.852652
vn -0.671158 -0.203727 -0.712771
vn -0.665201 -0.199573 -0.719499
vn -0.474933 -0.172623 -0.862925
vn -0.943397 -0.206866 -0.259245
vn -0.957542 -0.231740 -0.171493
vn 0.162270 -0.132225 -0.977847
vn 0.219730 -0.067660 -0.973212
vn 0.218431 -0.068357 -0.973455
vn 0.158367 -0.213455 -0.964032
vn 0.680775 0.144646 0.718069
vn 0.916730 0.188346 0.352323
vn 0.965271 0.141309 0.219734
vn 0.743577 0.085824 0.663120
vn 0.530082 0.178608 0.828922
vn 0.541352 0.141241 0.828848
vn 0.594195 0.026572 -0.803882
vn 0.559098 0.026851 -0.828667
vn 0.598623 0.053149 -0.799266
vn 0.713683 0.057624 -0.698095
vn 0.987485 0.143416 -0.065619
vn 0.793781 0.083190 -0.602487
vn -0.451493 -0.162362 -0.877379
vn -0.431718 -0.217952 -0.875281
vn -0.538403 -0.222792 -0.812703
vn -0.620754 -0.157167 -0.768091
vn -0.817146 -0.312194 -0.484569
vn -0.845232 -0.173757 -0.505363
vn -0.808037 -0.311828 -0.499839
vn -0.839349 -0.174012 -0.514988
vn -0.960302 -0.189642 -0.204589
vn -0.968601 -0.151169 -0.197383
vn -0.964960 -0.240834 -0.104167
vn -0.988950 -0.133019 -0.065455
vn -0.062681 0.067149 0.995772
vn 0.170262 0.101568 0.980150
vn -0.292924 0.041812 0.955221
vn -0.231896 0.033302 0.972170
vn -0.456881 -0.004901 0.889514
vn -0.429864 -0.006486 0.902870
vn 0.956839 0.152191 0.247583
vn 0.986069 0.153342 0.064454
vn 0.980167 0.190985 0.052886
vn 0.937741 0.214495 0.273192
vn 0.719256 0.182677 0.670298
vn 0.628396 0.223952 0.744959
vn -0.761838 -0.099787 0.640036
vn -0.760583 -0.098885 0.641666
vn -0.806694 -0.178079 0.563500
vn -0.797011 -0.269084 0.540710
vn -0.947348 -0.206386 -0.244818
vn -0.606654 -0.193057 -0.771168
vn -0.556705 -0.205818 -0.804810
vn -0.942527 -0.210263 -0.259677
vn -0.982866 -0.184290 0.003563
vn -0.978961 -0.203529 -0.014560
vn 0.413224 0.120603 -0.902608
vn 0.364041 0.027199 -0.930986
vn 0.345377 0.023978 -0.938158
vn 0.350326 0.053492 -0.935099
vn 0.381054 0.032111 -0.923995
vn 0.425961 0.124606 -0.896120
vn 0.935026 0.271328 0.228270
vn 0.960583 0.199423 0.193678
vn 0.980997 0.187066 0.051483
vn 0.978445 0.192086 0.075824
vn 0.791451 0.378762 0.479734
vn 0.839279 0.199188 0.505900
vn 0.792206 0.377865 0.479194
vn 0.837370 0.199186 0.509055
vn 0.686706 0.129188 0.715363
vn 0.892151 0.150830 0.425814
vn 0.549551 0.112013 0.827917
vn 0.613854 0.027354 -0.788946
vn 0.685789 0.048675 -0.726171
vn 0.765502 0.074342 -0.639125
vn -0.517645 -0.135827 -0.844745
vn -0.642291 -0.139186 -0.753717
vn -0.849208 -0.135690 -0.510327
vn -0.845666 -0.135601 -0.516198
vn -0.971243 -0.149121 -0.185606
vn -0.988117 -0.149281 -0.036604
vn -0.231014 0.036456 0.972267
vn -0.330996 0.013025 0.943542
vn -0.408747 -0.005943 0.912628
vn 0.959713 0.136619 0.245532
vn 0.989498 0.124674 0.073145
vn 0.783624 0.147781 0.603402
vn -0.685469 -0.201455 -0.699677
vn -0.573149 0.164228 0.802826
vn -0.583162 0.115280 0.804135
vn -0.589089 0.082122 0.803884
vn 0.156163 -0.251094 -0.955282
vn 0.156163 -0.251094 -0.955282
vn 0.715498 -0.212330 0.665566
vn 0.873296 -0.182568 0.451690
vn 0.928394 -0.200439 0.312903
vn 0.544649 -0.092907 0.833502
vn -0.789854 -0.311879 0.528074
vn -0.789854 -0.311879 0.528075
vn 0.402512 0.141790 -0.904367
vn 0.358530 0.098733 -0.928282
vn 0.458173 0.197979 -0.866535
s 1
g pCube222
usemtl standardSurface48SG
f 57/1/1 58/2/2 204/3/3 205/4/4
s 2
f 60/5/5 59/6/6 61/372/7 62/340/8
s 3
f 63/9/9 64/10/10 65/11/11 66/12/12
f 244/13/13 245/14/14 75/15/15 76/16/16
s 5
f 77/17/17 78/359/18 242/19/19 243/303/20
s 1
f 78/359/21 80/356/22 241/22/23 242/19/24
s 7
f 82/23/25 81/347/26 264/25/27 265/26/28
s 8
f 84/27/29 83/28/30 183/29/31 184/30/32
s 9
f 86/31/33 85/32/34 181/33/35 182/34/36
s 10
f 90/35/37 89/36/38 185/37/39 186/309/40
s 11
f 200/39/41 84/27/42 184/30/43 199/40/44
s 12
f 79/41/45 57/1/46 190/42/47 191/305/48
s 13
f 57/1/49 205/4/50 206/44/51 190/42/52
s 14
f 60/5/53 62/340/54 188/45/55 189/46/56
s 15
f 63/9/57 66/12/58 192/47/59 187/48/60
s 16
f 93/49/61 85/32/62 86/31/63 94/50/64
f 95/51/65 262/52/66 263/53/67 96/54/68
s 1
f 266/55/69 97/56/70 82/23/71 265/26/72
f 201/57/73 98/58/74 84/27/75 200/39/76
s 20
f 100/337/77 99/60/78 89/36/79 90/35/80
s 3
f 64/10/10 101/61/81 102/62/82 65/11/11
f 75/15/15 245/14/14 246/63/83 103/64/84
s 1
f 268/65/85 241/22/23 80/356/22 104/352/86
f 204/3/3 58/2/2 105/67/87 203/68/88
s 16
f 107/69/89 93/49/61 94/50/64 108/70/90
f 109/71/91 261/72/92 262/52/66 95/51/65
s 1
f 267/73/93 110/74/94 97/56/70 266/55/69
f 202/75/95 111/76/96 98/58/74 201/57/73
f 268/65/85 104/352/86 110/74/94 267/73/93
f 203/68/88 105/67/87 111/76/96 202/75/95
s 10
f 85/32/97 90/310/37 186/38/40 181/33/98
s 20
f 93/49/99 100/59/77 90/310/80 85/32/100
s 2
f 62/8/8 61/373/7 64/10/101 63/9/102
s 14
f 188/307/55 62/8/54 63/9/103 187/48/104
s 12
f 66/12/105 79/306/45 191/43/48 192/47/106
s 5
f 76/16/107 77/351/17 243/20/20 244/13/108
s 7
f 264/301/27 81/348/26 96/54/109 263/53/110
s 8
f 183/311/31 83/298/30 86/31/111 182/34/112
s 21
f 11/77/113 3/80/114 32/79/115 31/78/116
s 22
f 3/80/117 49/82/118 48/376/119 32/79/120
s 23
f 5/83/121 10/86/122 28/85/123 27/84/124
f 10/86/122 277/88/125 276/87/126 28/85/123
s 24
f 278/89/127 52/91/128 11/77/129 279/90/130
s 21
f 279/90/131 11/77/113 31/78/116 280/92/132
s 25
f 284/93/133 12/96/134 55/95/135 285/94/136
s 26
f 21/97/137 22/100/138 9/99/139 6/98/140
f 287/101/141 286/102/142 9/99/139 22/100/138
s 21
f 25/103/143 12/96/144 284/93/145 283/104/146
f 26/105/147 4/106/148 12/96/144 25/103/143
s 28
f 47/338/149 46/108/150 4/106/151 26/105/152
s 23
f 27/84/124 28/85/123 40/110/153 39/109/154
f 276/87/126 275/111/155 40/110/153 28/85/123
s 21
f 31/78/116 43/113/156 281/112/157 280/92/132
f 32/79/115 44/114/158 43/113/156 31/78/116
s 26
f 33/115/159 34/116/160 22/100/138 21/97/137
f 288/117/161 287/101/141 22/100/138 34/116/160
s 21
f 37/118/162 25/103/143 283/104/146 282/119/163
f 38/120/164 26/105/147 25/103/143 37/118/162
f 43/113/156 37/118/162 282/119/163 281/112/157
f 44/114/158 38/120/164 37/118/162 43/113/156
s 28
f 21/97/165 6/98/166 46/108/150 47/338/149
s 22
f 49/82/118 5/83/167 27/84/168 48/376/119
s 24
f 277/88/169 10/86/170 52/91/128 278/89/127
s 25
f 55/95/135 9/99/171 286/102/172 285/94/136
s off
f 113/121/173 114/374/174 115/375/175 116/369/176
f 29/125/177 7/126/178 76/349/179 75/357/180
f 53/344/181 1/128/182 78/18/183 77/350/184
f 1/128/185 30/129/186 80/21/187 78/18/188
f 2/130/189 54/343/190 81/341/191 82/358/192
f 8/132/193 23/133/194 95/355/195 96/346/196
f 24/134/197 2/130/198 82/358/199 97/354/200
f 118/335/201 117/136/202 119/137/203 120/363/204
f 121/139/205 122/140/206 123/141/207 124/362/208
f 39/109/209 40/110/210 102/62/211 101/61/212
s 29
f 247/143/213 41/144/214 103/64/215 246/63/216
s off
f 41/144/217 29/125/218 75/357/219 103/64/220
f 30/129/221 42/145/222 104/66/223 80/21/224
f 125/146/225 113/121/226 116/370/227 126/366/228
f 127/148/229 128/149/230 129/150/231 130/151/232
f 34/116/233 33/115/234 107/69/235 108/70/236
s 30
f 35/152/237 260/153/238 261/72/239 109/71/240
s off
f 23/133/241 35/152/242 109/71/243 95/355/244
f 36/154/245 24/134/246 97/354/247 110/353/248
f 117/136/249 131/155/250 132/156/251 119/137/252
f 42/145/253 36/154/254 110/353/255 104/66/256
f 131/155/257 125/146/258 126/366/259 132/156/260
f 128/149/261 118/135/262 120/364/263 129/150/264
f 114/122/265 121/139/266 124/362/267 115/123/268
f 7/126/269 53/345/270 77/304/271 76/349/272
f 54/342/273 8/132/274 96/346/275 81/24/276
f 32/79/277 48/377/278 114/374/279 113/121/280
f 61/7/281 59/6/282 116/124/283 115/360/284
f 47/107/285 26/105/286 117/136/287 118/335/288
f 99/60/289 100/371/290 120/336/291 119/368/292
f 27/84/293 39/109/294 122/140/295 121/139/296
f 39/109/297 101/61/298 123/141/299 122/140/300
f 101/61/301 64/10/302 124/142/303 123/141/304
f 44/114/305 32/79/306 113/121/307 125/146/308
f 59/6/309 106/157/310 126/147/311 116/124/312
f 33/115/313 21/97/314 128/149/315 127/148/316
f 93/49/317 107/69/318 130/151/319 129/365/320
f 107/69/321 33/115/322 127/148/323 130/151/324
f 26/105/325 38/120/326 131/155/327 117/136/328
f 112/158/329 99/60/330 119/368/331 132/367/332
f 38/120/333 44/114/334 125/146/335 131/155/336
f 106/157/337 112/158/338 132/367/339 126/147/340
f 21/97/341 47/339/342 118/135/343 128/149/344
f 100/59/345 93/49/346 129/365/347 120/138/348
f 48/81/349 27/84/350 121/139/351 114/122/352
f 64/10/353 61/373/354 115/361/355 124/142/356
s 9
f 134/159/357 133/160/358 169/161/359 170/162/360
s 8
f 171/327/361 135/312/362 134/159/363 170/162/364
f 136/165/365 135/164/362 171/163/361 172/166/366
s 11
f 198/167/367 136/165/368 172/166/369 197/168/370
s 10
f 138/169/371 137/170/372 173/171/373 174/325/374
f 133/160/375 138/326/371 174/172/374 169/161/376
s 14
f 176/323/377 140/308/378 139/175/379 175/176/380
f 141/177/381 140/174/378 176/173/377 177/178/382
s 13
f 142/179/383 207/180/384 208/181/385 178/182/386
s 12
f 143/183/387 142/179/388 178/182/389 179/321/390
f 144/185/391 143/322/387 179/184/390 180/186/392
s 15
f 139/175/393 144/185/394 180/186/395 175/176/396
s 9
f 146/187/397 145/188/398 87/189/399 88/190/400
s 8
f 68/191/401 147/332/402 146/187/403 88/190/404
f 148/193/405 147/192/402 68/319/401 67/194/406
s 11
f 195/195/407 148/193/408 67/194/409 194/196/410
s 10
f 150/334/411 149/198/412 70/199/413 69/200/414
f 145/188/415 150/197/411 69/317/414 87/189/416
s 14
f 74/201/417 152/330/418 151/203/419 92/204/420
f 153/205/421 152/202/418 74/313/417 73/206/422
s 13
f 154/207/423 210/208/424 211/209/425 72/210/426
s 12
f 155/333/427 154/207/428 72/210/429 71/212/430
f 156/213/431 155/211/427 71/315/430 91/214/432
s 15
f 151/203/433 156/213/434 91/214/435 92/204/436
s 9
f 158/215/437 157/216/438 145/188/398 146/187/397
s 8
f 147/332/402 159/328/439 158/215/440 146/187/403
f 160/218/441 159/217/439 147/192/402 148/193/405
s 11
f 196/219/442 160/218/443 148/193/408 195/195/407
s 10
f 162/331/444 161/221/445 149/198/412 150/334/411
f 157/216/446 162/220/444 150/197/411 145/188/415
s 14
f 152/330/418 164/324/447 163/223/448 151/203/419
f 165/224/449 164/222/447 152/202/418 153/205/421
s 13
f 166/225/450 209/226/451 210/208/424 154/207/423
s 12
f 167/329/452 166/225/453 154/207/428 155/333/427
f 168/228/454 167/227/452 155/211/427 156/213/431
s 15
f 163/223/455 168/228/456 156/213/434 151/203/433
s 9
f 170/162/360 169/161/359 157/216/438 158/215/437
s 8
f 159/328/439 171/327/361 170/162/364 158/215/440
f 172/166/366 171/163/361 159/217/439 160/218/441
s 11
f 197/168/370 172/166/369 160/218/443 196/219/442
s 10
f 174/325/374 173/171/373 161/221/445 162/331/444
f 169/161/376 174/172/374 162/220/444 157/216/446
s 14
f 164/324/447 176/323/377 175/176/380 163/223/448
f 177/178/382 176/173/377 164/222/447 165/224/449
s 13
f 178/182/386 208/181/385 209/226/451 166/225/450
s 12
f 179/321/390 178/182/389 166/225/453 167/329/452
f 180/186/392 179/184/390 167/227/452 168/228/454
s 15
f 175/176/396 180/186/395 168/228/456 163/223/455
s off
f 67/194/457 68/319/458 56/320/459 13/230/460
f 69/200/461 70/199/462 16/231/463 45/232/464
s 41
f 194/196/465 67/194/466 13/230/467 193/233/468
s off
f 71/212/469 72/210/470 18/234/471 51/235/472
s 42
f 72/210/473 211/209/474 212/236/475 18/234/476
s off
f 73/206/477 74/313/478 50/314/479 19/238/480
f 88/190/481 87/189/482 15/239/483 14/240/484
f 92/204/485 91/214/486 17/241/487 20/242/488
f 87/189/489 69/317/490 45/318/491 15/239/492
f 74/201/493 92/204/494 20/242/495 50/237/496
f 91/214/497 71/315/498 51/316/499 17/241/500
f 68/191/501 88/190/502 14/240/503 56/229/504
s 9
f 182/34/36 181/33/35 133/160/358 134/159/357
s 8
f 135/312/362 183/311/31 182/34/112 134/159/363
f 184/30/32 183/29/31 135/164/362 136/165/365
s 11
f 199/40/44 184/30/43 136/165/368 198/167/367
s 10
f 186/309/40 185/37/39 137/170/372 138/169/371
f 181/33/98 186/38/40 138/326/371 133/160/375
s 14
f 140/308/378 188/307/55 187/48/104 139/175/379
f 189/46/56 188/45/55 140/174/378 141/177/381
s 13
f 190/42/52 206/44/51 207/180/384 142/179/383
s 12
f 191/305/48 190/42/47 142/179/388 143/183/387
f 192/47/106 191/43/48 143/322/387 144/185/391
s 15
f 187/48/60 192/47/59 144/185/394 139/175/393
s 41
f 70/199/505 194/196/465 193/233/468 16/231/506
s 11
f 149/198/507 195/195/407 194/196/410 70/199/508
f 161/221/509 196/219/442 195/195/407 149/198/507
f 173/171/510 197/168/370 196/219/442 161/221/509
f 137/170/511 198/167/367 197/168/370 173/171/510
f 185/37/512 199/40/44 198/167/367 137/170/511
f 89/36/513 200/39/41 199/40/44 185/37/512
s 1
f 99/60/514 201/57/73 200/39/76 89/36/515
f 112/158/516 202/75/95 201/57/73 99/60/514
f 106/157/517 203/68/88 202/75/95 112/158/516
f 59/6/518 204/3/3 203/68/88 106/157/517
f 205/4/4 204/3/3 59/6/518 60/5/519
s 13
f 206/44/51 205/4/50 60/5/520 189/46/521
f 207/180/384 206/44/51 189/46/521 141/177/522
f 208/181/385 207/180/384 141/177/522 177/178/523
f 209/226/451 208/181/385 177/178/523 165/224/524
f 210/208/424 209/226/451 165/224/524 153/205/525
f 211/209/425 210/208/424 153/205/525 73/206/526
s 42
f 212/236/475 211/209/474 73/206/527 19/238/528
s 1
f 214/243/529 213/244/530 269/245/531 270/246/532
s 5
f 215/247/533 214/243/534 270/246/535 271/299/536
f 216/249/537 215/300/533 271/248/536 272/250/538
s 3
f 272/250/539 273/251/540 217/252/541 216/249/542
f 218/253/543 217/252/541 273/251/540 274/254/544
s 29
f 275/111/545 219/255/546 218/253/547 274/254/548
s 23
f 248/256/549 247/143/550 219/255/551 220/257/552
f 221/258/553 249/259/554 248/256/549 220/257/552
s 24
f 249/259/555 221/258/556 222/261/557 250/260/558
f 250/260/558 222/261/557 223/263/559 251/262/560
s 21
f 251/262/561 223/263/562 224/265/563 252/264/564
f 225/266/565 253/267/566 252/264/564 224/265/563
f 226/268/567 254/269/568 253/267/566 225/266/565
f 227/270/569 255/271/570 254/269/568 226/268/567
f 228/272/571 256/273/572 255/271/570 227/270/569
s 25
f 256/273/573 228/272/574 229/275/575 257/274/576
f 230/276/577 258/277/578 257/274/576 229/275/575
s 44
f 259/278/579 258/277/580 230/276/581 231/279/582
f 260/153/583 259/278/579 231/279/582 232/280/584
s 30
f 233/281/585 232/280/586 288/117/587 289/282/588
s 16
f 234/283/589 233/281/590 289/282/591 290/284/592
f 235/285/593 234/283/589 290/284/592 291/286/594
s 7
f 292/297/595 236/302/596 235/285/597 291/286/598
f 237/289/599 236/288/596 292/287/595 293/290/600
s 1
f 294/291/601 238/292/602 237/289/603 293/290/604
f 295/293/605 239/294/606 238/292/602 294/291/601
f 296/295/607 240/296/608 239/294/606 295/293/605
f 296/295/607 269/245/531 213/244/530 240/296/608
f 242/19/24 241/22/23 213/244/530 214/243/529
s 5
f 243/303/20 242/19/19 214/243/534 215/247/533
f 244/13/108 243/20/20 215/300/533 216/249/537
s 3
f 216/249/542 217/252/541 245/14/14 244/13/13
f 246/63/83 245/14/14 217/252/541 218/253/543
s 29
f 219/255/546 247/143/213 246/63/216 218/253/547
s 23
f 29/125/609 41/144/610 247/143/550 248/256/549
f 249/259/554 7/126/611 29/125/609 248/256/549
s 24
f 7/126/612 249/259/555 250/260/558 53/127/613
f 53/127/613 250/260/558 251/262/560 1/128/614
s 21
f 1/128/615 251/262/561 252/264/564 30/129/616
f 253/267/566 42/145/617 30/129/616 252/264/564
f 254/269/568 36/154/618 42/145/617 253/267/566
f 255/271/570 24/134/619 36/154/618 254/269/568
f 256/273/572 2/130/620 24/134/619 255/271/570
s 25
f 2/130/621 256/273/573 257/274/576 54/131/622
f 258/277/578 8/132/623 54/131/622 257/274/576
s 44
f 23/133/624 8/132/625 258/277/580 259/278/579
f 35/152/626 23/133/624 259/278/579 260/153/583
s 30
f 261/72/239 260/153/238 232/280/586 233/281/585
s 16
f 262/52/66 261/72/92 233/281/627 234/283/589
f 263/53/67 262/52/66 234/283/589 235/285/593
s 7
f 236/302/596 264/301/27 263/53/110 235/285/597
f 265/26/28 264/25/27 236/288/596 237/289/599
s 1
f 238/292/602 266/55/69 265/26/72 237/289/603
f 239/294/606 267/73/93 266/55/69 238/292/602
f 240/296/608 268/65/85 267/73/93 239/294/606
f 240/296/608 213/244/530 241/22/23 268/65/85
f 270/246/532 269/245/531 58/2/2 57/1/1
s 5
f 271/299/536 270/246/535 57/1/628 79/41/629
f 272/250/538 271/248/536 79/306/629 66/12/630
s 3
f 66/12/12 65/11/11 273/251/540 272/250/539
f 274/254/544 273/251/540 65/11/11 102/62/82
s 29
f 40/110/631 275/111/545 274/254/548 102/62/632
s 23
f 220/257/552 219/255/551 275/111/155 276/87/126
f 277/88/125 221/258/633 220/257/552 276/87/126
s 24
f 221/258/556 277/88/169 278/89/127 222/261/557
f 222/261/557 278/89/127 279/90/130 223/263/559
s 21
f 223/263/562 279/90/131 280/92/132 224/265/563
f 281/112/157 225/266/565 224/265/563 280/92/132
f 282/119/163 226/268/567 225/266/565 281/112/157
f 283/104/146 227/270/569 226/268/567 282/119/163
f 284/93/145 228/272/571 227/270/569 283/104/146
s 25
f 228/272/574 284/93/133 285/94/136 229/275/575
f 286/102/172 230/276/577 229/275/575 285/94/136
s 26
f 231/279/634 230/276/635 286/102/142 287/101/141
f 232/280/636 231/279/634 287/101/141 288/117/161
s 30
f 289/282/588 288/117/587 34/116/637 108/70/638
s 16
f 290/284/592 289/282/591 108/70/90 94/50/64
f 291/286/594 290/284/592 94/50/64 86/31/63
s 7
f 83/298/639 292/297/595 291/286/598 86/31/640
f 293/290/600 292/287/595 83/28/639 84/27/641
s 1
f 98/58/74 294/291/601 293/290/604 84/27/75
f 111/76/96 295/293/605 294/291/601 98/58/74
f 105/67/87 296/295/607 295/293/605 111/76/96
f 58/2/2 269/245/531 296/295/607 105/67/87
