# This file uses centimeters as units for non-parametric coordinates.

mtllib CigBox.mtl
g default
v -0.259800 5.573953 0.500000
v 0.259800 5.573953 0.500000
v -0.259800 6.998811 0.500000
v 0.259800 6.998811 0.500000
v -0.259800 6.998811 -0.500000
v 0.259800 6.998811 -0.500000
v -0.259800 5.573953 -0.500000
v 0.259800 5.573953 -0.500000
vt 0.628743 0.496275
vt 0.623856 0.368176
vt 0.611699 0.049473
vt 0.640900 0.814978
vt 0.365164 0.058877
vt 0.394366 0.824383
vt 0.377322 0.377580
vt 0.382208 0.505680
vt 0.399252 0.952482
vt 0.266267 0.829270
vt 0.769000 0.810092
vt 0.645787 0.943078
vt 0.254109 0.510566
vt 0.756842 0.491389
vn 0.000000 0.000000 1.000000
vn 0.000000 0.000000 1.000000
vn 0.000000 0.000000 1.000000
vn 0.000000 0.000000 1.000000
vn 0.000000 1.000000 0.000000
vn 0.000000 1.000000 0.000000
vn 0.000000 1.000000 0.000000
vn 0.000000 1.000000 0.000000
vn 0.000000 0.000000 -1.000000
vn 0.000000 0.000000 -1.000000
vn 0.000000 0.000000 -1.000000
vn 0.000000 0.000000 -1.000000
vn 0.000000 -1.000000 0.000000
vn 0.000000 -1.000000 0.000000
vn 0.000000 -1.000000 0.000000
vn 0.000000 -1.000000 0.000000
vn 1.000000 0.000000 0.000000
vn 1.000000 0.000000 0.000000
vn 1.000000 0.000000 0.000000
vn 1.000000 0.000000 0.000000
vn -1.000000 0.000000 0.000000
vn -1.000000 0.000000 0.000000
vn -1.000000 0.000000 0.000000
vn -1.000000 0.000000 0.000000
s off
g pCube4
usemtl initialShadingGroup
f 1/1/1 2/14/2 4/11/3 3/4/4
f 3/4/5 4/12/6 6/9/7 5/6/8
f 5/6/9 6/10/10 8/13/11 7/8/12
f 7/8/13 8/7/14 2/2/15 1/1/16
f 2/2/17 8/7/18 6/5/19 4/3/20
f 7/8/21 1/1/22 3/4/23 5/6/24
