# This file uses centimeters as units for non-parametric coordinates.

mtllib knife.mtl
g default
v -0.047171 3.179513 0.398140
v 0.165830 3.179513 0.398140
v -0.047171 4.073567 -0.121969
v 0.165830 4.073567 -0.121969
v -0.047171 3.900311 -0.419791
v 0.165830 3.900311 -0.419791
v -0.047171 3.006258 0.100319
v 0.165830 3.006258 0.100319
v -0.009427 4.099388 -0.207626
v 0.128086 4.099388 -0.207626
v 0.128086 3.987535 -0.399898
v -0.009427 3.987535 -0.399898
v -0.009427 2.980436 0.185975
v 0.128086 2.980436 0.185975
v 0.128086 3.092289 0.378247
v -0.009427 3.092289 0.378247
v 0.031792 4.073567 -0.121969
v 0.041551 4.099388 -0.207626
v 0.041551 3.987535 -0.399898
v 0.031792 3.900311 -0.419791
v 0.031792 3.006258 0.100319
v 0.041551 2.980436 0.185975
v 0.041551 3.092289 0.378247
v 0.031792 3.179513 0.398140
v 0.086621 4.073567 -0.121969
v 0.076949 4.099388 -0.207626
v 0.076949 3.987535 -0.399898
v 0.086621 3.900311 -0.419791
v 0.086621 3.006258 0.100319
v 0.076949 2.980436 0.185975
v 0.076949 3.092289 0.378247
v 0.086621 3.179513 0.398140
v 0.086621 3.960782 -0.056358
v 0.031792 3.960782 -0.056358
v -0.047171 3.960782 -0.056358
v -0.047171 3.787527 -0.354179
v 0.031792 3.787527 -0.354179
v 0.086621 3.787527 -0.354179
v 0.165830 3.787527 -0.354179
v 0.165830 3.960782 -0.056358
v 0.086621 3.859394 0.002624
v 0.031792 3.859394 0.002624
v -0.047171 3.859394 0.002624
v -0.047171 3.686139 -0.295197
v 0.031792 3.686139 -0.295197
v 0.086621 3.686139 -0.295197
v 0.165830 3.686139 -0.295197
v 0.165830 3.859394 0.002624
v 0.086621 3.790905 0.042467
v 0.031792 3.790905 0.042467
v -0.047171 3.790905 0.042467
v -0.047171 3.617649 -0.255354
v 0.031792 3.617649 -0.255354
v 0.086621 3.617649 -0.255354
v 0.165830 3.617649 -0.255354
v 0.165830 3.790905 0.042467
v 0.086621 3.722033 0.082533
v 0.031792 3.722033 0.082533
v -0.047171 3.722033 0.082533
v -0.047171 3.548778 -0.215289
v 0.031792 3.548778 -0.215289
v 0.086621 3.548778 -0.215289
v 0.165830 3.548778 -0.215289
v 0.165830 3.722033 0.082533
v 0.086621 3.629208 0.136533
v 0.031792 3.629208 0.136533
v -0.047171 3.629208 0.136533
v -0.047171 3.455952 -0.161288
v 0.031792 3.455952 -0.161288
v 0.086621 3.455952 -0.161288
v 0.165830 3.455952 -0.161288
v 0.165830 3.629208 0.136533
v 0.086621 3.474226 0.226693
v 0.031792 3.474226 0.226693
v -0.047171 3.474226 0.226693
v -0.047171 3.300970 -0.071128
v 0.031792 3.300970 -0.071128
v 0.086621 3.300970 -0.071128
v 0.165830 3.300970 -0.071128
v 0.165830 3.474226 0.226693
v 0.031792 3.391862 0.274607
v -0.047171 3.391862 0.274607
v -0.047171 3.218607 -0.023214
v 0.031792 3.218607 -0.023214
v 0.086621 3.218607 -0.023214
v 0.165830 3.218607 -0.023214
v 0.165830 3.391862 0.274607
v 0.086621 3.391862 0.274607
v 0.031792 3.294368 0.331324
v -0.047171 3.294368 0.331324
v -0.047171 3.121113 0.033502
v 0.031792 3.121113 0.033502
v 0.086621 3.121113 0.033502
v 0.165830 3.121113 0.033502
v 0.165830 3.294368 0.331324
v 0.086621 3.294368 0.331324
v 0.031792 4.076233 0.264910
v 0.031792 4.129612 0.233857
v 0.086621 4.076233 0.264910
v 0.086621 4.129612 0.233857
v 0.031792 3.843848 0.258697
v 0.031792 3.936673 0.204697
v 0.086621 3.843848 0.258697
v 0.086621 3.936673 0.204697
v 0.031792 3.644062 0.381036
v 0.031792 3.699664 0.348691
v 0.086621 3.644062 0.381036
v 0.086621 3.699664 0.348691
v 0.031792 3.258854 -0.290041
v 0.086621 3.258854 -0.290041
v 0.031792 3.318700 -0.324856
v 0.086621 3.318700 -0.324856
v -0.025978 2.831814 0.642085
v 0.025978 2.831814 0.642085
v -0.025978 4.710309 0.642085
v 0.025978 4.710309 0.642085
v -0.025978 4.710309 -0.642085
v 0.025978 4.710309 -0.642085
v -0.025978 2.831814 -0.642085
v 0.025978 2.831814 -0.642085
vt 0.990175 0.377360
vt 0.429463 0.840052
vt 0.429783 0.758478
vt 0.989866 0.448686
vt 0.457479 0.150246
vt 0.426183 0.150123
vt 0.754987 0.979592
vt 0.835418 0.972446
vt 0.804916 0.447885
vt 0.762529 0.447701
vt 0.762838 0.376375
vt 0.805225 0.376559
vt 0.785172 0.328448
vt 0.757808 0.328329
vt 0.423256 0.894951
vt 0.957577 0.336689
vt 0.347176 0.839729
vt 0.690889 0.376063
vt 0.690580 0.447390
vt 0.347497 0.758155
vt 0.987770 0.932576
vt 0.431958 0.205069
vt 0.349672 0.204746
vt 0.688484 0.931280
vt 0.708536 0.979391
vt 0.373059 0.149914
vt 0.760433 0.931592
vt 0.802820 0.931775
vt 0.370132 0.894742
vt 0.711357 0.328128
vt 0.398299 0.204937
vt 0.404452 0.150038
vt 0.735986 0.979509
vt 0.731002 0.931464
vt 0.733098 0.447574
vt 0.733407 0.376247
vt 0.738807 0.328247
vt 0.401525 0.894865
vt 0.395803 0.839920
vt 0.396124 0.758346
vt 0.980002 0.092177
vt 0.980536 0.059052
vt 0.988073 0.862536
vt 0.803123 0.861735
vt 0.760737 0.861551
vt 0.731305 0.861424
vt 0.688787 0.861240
vt 0.349357 0.284849
vt 0.777156 0.088909
vt 0.776555 0.126218
vt 0.743429 0.125684
vt 0.777690 0.055784
vt 0.988346 0.799573
vt 0.978860 0.163042
vt 0.803396 0.798772
vt 0.761010 0.798588
vt 0.731578 0.798461
vt 0.689060 0.798276
vt 0.349074 0.356858
vt 0.540042 0.155971
vt 0.431170 0.405824
vt 0.397510 0.405692
vt 0.988530 0.757040
vt 0.803580 0.756239
vt 0.761194 0.756056
vt 0.731762 0.755928
vt 0.689244 0.755744
vt 0.348883 0.405501
vt 0.296013 0.586046
vt 0.328110 0.573009
vt 0.988716 0.714270
vt 0.803766 0.713469
vt 0.761379 0.713286
vt 0.731948 0.713158
vt 0.689429 0.712974
vt 0.348691 0.454415
vt 0.237291 0.441469
vt 0.195768 0.495135
vt 0.168369 0.473935
vt 0.269388 0.428432
vt 0.988965 0.656625
vt 0.254490 0.639712
vt 0.804015 0.655824
vt 0.761629 0.655640
vt 0.732197 0.655513
vt 0.689679 0.655328
vt 0.348432 0.520342
vt 0.013680 0.453392
vt 0.064540 0.105433
vt 0.027809 0.110395
vt 0.989382 0.560379
vt 0.804432 0.559578
vt 0.160050 0.966586
vt 0.127647 0.947142
vt 0.690096 0.559083
vt 0.347999 0.630415
vt 0.989604 0.509231
vt 0.114541 0.064822
vt 0.804654 0.508430
vt 0.043671 0.623531
vt 0.170203 0.799506
vt 0.168081 0.761777
vt 0.250250 0.816271
vt 0.217847 0.796827
vt 0.690317 0.507935
vt 0.062077 0.950829
vt 0.347769 0.688912
vt 0.324424 0.323230
vt 0.087737 0.277157
vt 0.121490 0.249742
vt 0.144858 0.278512
vt 0.051005 0.282119
vt 0.505630 0.446589
vt 0.505367 0.507133
vt 0.478259 0.758669
vt 0.478532 0.689426
vt 0.505146 0.558282
vt 0.478762 0.630929
vt 0.504729 0.654527
vt 0.479194 0.520856
vt 0.504479 0.712173
vt 0.479453 0.454929
vt 0.504294 0.754943
vt 0.479645 0.406014
vt 0.504110 0.797475
vt 0.479837 0.357371
vt 0.503837 0.860438
vt 0.480120 0.285363
vt 0.503534 0.930479
vt 0.480434 0.205259
vt 0.739324 0.208844
vt 0.538888 0.334875
vt 0.711874 0.208725
vt 0.758325 0.208927
vt 0.454552 0.895074
vt 0.785689 0.209045
vt 0.477939 0.840243
vt 0.505939 0.375262
vt 0.396396 0.689103
vt 0.430056 0.689235
vt 0.396626 0.630606
vt 0.430285 0.630738
vt 0.397058 0.520533
vt 0.430718 0.520666
vt 0.430977 0.454738
vt 0.397317 0.454606
vt 0.397701 0.357049
vt 0.431361 0.357181
vt 0.431644 0.285172
vt 0.397984 0.285040
vt 0.762267 0.508246
vt 0.732836 0.508119
vt 0.762046 0.559395
vt 0.732614 0.559267
vt 0.215725 0.759097
vt 0.109241 0.619844
vt 0.139456 0.777537
vt 0.031331 0.928859
vt 0.111105 0.305928
vt 0.274424 0.363841
vt 0.158529 0.248350
vt 0.151579 0.063430
vt 0.209891 0.420269
vt 0.055202 0.399726
vt 0.163671 0.508172
vt 0.222394 0.652749
vt 0.541185 0.085106
vt 0.770622 0.158812
vt 0.972928 0.195636
vt 0.744031 0.088375
vt 0.954821 0.972963
vt 0.536132 0.971150
vt 0.404989 0.013481
vt 0.373596 0.013357
vt 0.426720 0.013566
vt 0.458016 0.013689
vt 0.658291 0.335393
vt 0.838174 0.336172
vt 0.782351 0.979710
vt 0.655535 0.971667
vt 0.346930 0.496332
vt 0.334204 0.496143
vt 0.340758 0.054458
vt 0.353484 0.054647
vt 0.353673 0.041921
vt 0.668212 0.046589
vt 0.668023 0.059315
vt 0.680749 0.059503
vt 0.674195 0.501188
vt 0.661469 0.501000
vt 0.661280 0.513726
vt 0.346741 0.509058
vt 0.654725 0.955410
vt 0.340187 0.950743
vn 0.000000 0.502843 0.864378
vn 0.000000 0.502844 0.864377
vn 0.000000 0.502844 0.864377
vn 0.000000 0.502844 0.864377
vn 0.000000 0.864376 -0.502846
vn 0.000000 0.864376 -0.502846
vn 0.000000 0.864376 -0.502846
vn 0.000000 0.864376 -0.502846
vn 0.000000 -0.502846 -0.864376
vn 0.000000 -0.502846 -0.864376
vn 0.000000 -0.502846 -0.864376
vn 0.000000 -0.502846 -0.864376
vn 0.000000 -0.864376 0.502845
vn 0.000000 -0.864376 0.502845
vn 0.000000 -0.864376 0.502845
vn 0.000000 -0.864376 0.502845
vn 1.000000 -0.000000 0.000000
vn 1.000000 -0.000000 0.000000
vn 1.000000 -0.000000 0.000000
vn 1.000000 -0.000000 0.000000
vn -1.000000 0.000000 0.000000
vn -1.000000 0.000000 0.000000
vn -1.000000 -0.000000 0.000000
vn -1.000000 -0.000000 0.000000
vn 0.000000 0.957446 0.288613
vn 0.000000 0.957446 0.288614
vn 0.000000 0.957446 0.288614
vn 0.000000 0.957446 0.288613
vn 0.866078 0.432109 -0.251377
vn 0.866078 0.432109 -0.251377
vn 0.866078 0.432109 -0.251377
vn 0.866078 0.432109 -0.251377
vn 0.000000 0.222360 -0.974965
vn 0.000000 0.222360 -0.974965
vn 0.000000 0.222360 -0.974965
vn 0.000000 0.222360 -0.974965
vn -0.866078 0.432109 -0.251377
vn -0.866078 0.432109 -0.251377
vn -0.866078 0.432109 -0.251377
vn -0.866078 0.432109 -0.251377
vn 0.000000 -0.957441 -0.288629
vn 0.000000 -0.957441 -0.288629
vn 0.000000 -0.957441 -0.288629
vn 0.000000 -0.957441 -0.288629
vn 0.866079 -0.432108 0.251376
vn 0.866079 -0.432108 0.251376
vn 0.866079 -0.432108 0.251376
vn 0.866079 -0.432108 0.251376
vn 0.000000 -0.222359 0.974965
vn 0.000000 -0.222359 0.974965
vn 0.000000 -0.222359 0.974965
vn 0.000000 -0.222359 0.974965
vn -0.866079 -0.432109 0.251376
vn -0.866079 -0.432109 0.251376
vn -0.866079 -0.432109 0.251376
vn -0.866079 -0.432109 0.251376
vn 0.000000 0.957445 0.288616
vn 0.000000 0.957445 0.288616
vn 0.000000 0.864376 -0.502846
vn 0.000000 0.864376 -0.502846
vn 0.000000 0.222360 -0.974965
vn 0.000000 0.222360 -0.974965
vn 0.000000 -0.502846 -0.864376
vn 0.000000 -0.502846 -0.864376
vn 0.000000 -0.957442 -0.288627
vn 0.000000 -0.957442 -0.288627
vn 0.000000 -0.864376 0.502846
vn 0.000000 -0.864376 0.502846
vn 0.000000 -0.222359 0.974965
vn 0.000000 -0.222359 0.974965
vn 0.000000 0.502844 0.864377
vn 0.000000 0.502844 0.864377
vn 0.000000 0.957445 0.288617
vn 0.000000 0.957445 0.288617
vn 0.000000 0.864376 -0.502846
vn 0.000000 0.864376 -0.502846
vn 0.000000 0.222360 -0.974965
vn 0.000000 0.222360 -0.974965
vn 0.000000 -0.502846 -0.864376
vn 0.000000 -0.502846 -0.864376
vn 0.000000 -0.957442 -0.288627
vn 0.000000 -0.957442 -0.288627
vn 0.000000 -0.864376 0.502846
vn 0.000000 -0.864376 0.502846
vn 0.000000 -0.222359 0.974965
vn 0.000000 -0.222359 0.974965
vn 0.000000 0.502844 0.864377
vn 0.000000 0.502843 0.864378
vn 0.000000 0.502843 0.864378
vn 0.000000 0.502843 0.864378
vn 0.000000 0.502843 0.864378
vn 0.000000 0.502843 0.864378
vn 0.000000 0.502843 0.864378
vn 0.000000 0.502843 0.864377
vn -1.000000 -0.000000 0.000000
vn -1.000000 -0.000000 0.000000
vn -1.000000 -0.000000 0.000000
vn -1.000000 -0.000000 0.000000
vn 0.000000 -0.502847 -0.864376
vn 0.000000 -0.502846 -0.864376
vn 0.000000 -0.502846 -0.864376
vn 0.000000 -0.502846 -0.864376
vn 0.000000 -0.502846 -0.864376
vn 0.000000 -0.502847 -0.864375
vn 0.000000 -0.502846 -0.864376
vn 0.000000 -0.502848 -0.864375
vn 1.000000 -0.000000 0.000000
vn 1.000000 -0.000000 0.000000
vn 1.000000 -0.000000 0.000000
vn 1.000000 -0.000000 0.000000
vn 0.000000 0.502843 0.864378
vn 0.000000 0.502843 0.864378
vn 0.000000 0.502849 0.864375
vn 0.000000 0.502849 0.864375
vn 0.000000 0.502849 0.864375
vn 0.000000 0.502849 0.864375
vn 0.000000 0.502843 0.864378
vn 0.000000 0.502844 0.864377
vn -1.000000 -0.000000 0.000000
vn -1.000000 -0.000000 0.000000
vn 0.000000 -0.502845 -0.864377
vn 0.000000 -0.502845 -0.864377
vn 0.000000 -0.502844 -0.864377
vn 0.000000 -0.502844 -0.864377
vn 1.000000 0.000000 0.000000
vn 1.000000 0.000000 0.000000
vn 0.000000 0.502844 0.864377
vn 0.000000 0.502843 0.864378
vn 0.000000 0.502845 0.864376
vn 0.000000 0.502846 0.864376
vn 0.000000 0.502845 0.864376
vn -1.000000 0.000000 0.000000
vn -1.000000 0.000000 0.000000
vn 0.000000 -0.502843 -0.864377
vn 0.000000 -0.502843 -0.864378
vn 0.000000 -0.502844 -0.864377
vn 0.000000 -0.502844 -0.864377
vn 1.000000 0.000000 0.000000
vn 1.000000 0.000000 0.000000
vn 0.000000 0.502845 0.864376
vn 0.000000 0.502845 0.864376
vn 0.000000 0.502845 0.864376
vn 0.000000 0.502845 0.864376
vn -1.000000 0.000000 0.000000
vn -1.000000 0.000000 0.000000
vn 0.000000 -0.502846 -0.864376
vn 0.000000 -0.502846 -0.864376
vn 0.000000 -0.502846 -0.864376
vn 0.000000 -0.502846 -0.864376
vn 1.000000 -0.000000 0.000000
vn 1.000000 -0.000000 0.000000
vn 0.000000 0.502845 0.864376
vn 0.000000 0.502845 0.864377
vn 0.000000 0.502845 0.864377
vn 0.000000 0.502845 0.864377
vn 0.000000 0.502845 0.864377
vn 0.000000 0.502845 0.864377
vn 0.000000 0.502845 0.864376
vn -1.000000 -0.000000 0.000000
vn -1.000000 -0.000000 0.000000
vn 0.000000 -0.502845 -0.864376
vn 0.000000 -0.502845 -0.864376
vn 0.000000 -0.502845 -0.864377
vn 0.000000 -0.502845 -0.864377
vn 1.000000 0.000000 0.000000
vn 1.000000 0.000000 0.000000
vn 0.000000 0.502845 0.864376
vn 0.000000 0.502845 0.864377
vn 0.000000 0.502845 0.864376
vn 0.000000 0.502846 0.864376
vn 0.000000 0.502845 0.864377
vn -1.000000 -0.000000 0.000000
vn -1.000000 -0.000000 0.000000
vn 0.000000 -0.502844 -0.864377
vn 0.000000 -0.502844 -0.864377
vn 0.000000 -0.502844 -0.864377
vn 0.000000 -0.502844 -0.864377
vn 1.000000 0.000000 0.000000
vn 1.000000 0.000000 0.000000
vn 0.000000 0.502845 0.864376
vn 0.000000 0.502845 0.864377
vn 0.000000 0.502844 0.864377
vn -1.000000 -0.000000 0.000000
vn -1.000000 -0.000000 0.000000
vn 0.000000 -0.502845 -0.864377
vn 0.000000 -0.502845 -0.864377
vn 0.000000 -0.502845 -0.864377
vn 0.000000 -0.502845 -0.864377
vn 0.000000 -0.502845 -0.864377
vn 0.000000 -0.502845 -0.864377
vn 0.000000 -0.502845 -0.864377
vn 0.000000 -0.502845 -0.864377
vn 1.000000 -0.000000 0.000000
vn 1.000000 -0.000000 0.000000
vn 0.000000 0.502845 0.864377
vn 0.000000 0.502845 0.864377
vn 0.000000 0.502842 0.864379
vn 0.000000 0.502842 0.864379
vn 0.000000 0.502842 0.864379
vn 0.000000 0.502842 0.864379
vn -1.000000 0.000000 0.000000
vn -1.000000 0.000000 0.000000
vn -1.000000 0.000000 0.000000
vn -1.000000 0.000000 0.000000
vn 0.000000 -0.770719 0.637176
vn 0.000000 -0.770719 0.637176
vn 0.000000 -0.770719 0.637176
vn 0.000000 -0.770719 0.637176
vn 1.000000 0.000000 0.000000
vn 1.000000 0.000000 0.000000
vn 1.000000 0.000000 0.000000
vn 1.000000 0.000000 0.000000
vn 0.000000 0.864377 -0.502845
vn 0.000000 0.864377 -0.502845
vn 0.000000 0.864377 -0.502845
vn 0.000000 0.864377 -0.502845
vn -1.000000 0.000000 0.000000
vn -1.000000 0.000000 0.000000
vn -1.000000 0.000000 0.000000
vn -1.000000 0.000000 0.000000
vn 0.000000 -0.494650 0.869092
vn 0.000000 -0.494650 0.869092
vn 0.000000 -0.494650 0.869092
vn 0.000000 -0.494650 0.869092
vn 1.000000 0.000000 0.000000
vn 1.000000 0.000000 0.000000
vn 1.000000 0.000000 0.000000
vn 1.000000 0.000000 0.000000
vn 0.000000 0.494651 -0.869092
vn 0.000000 0.494651 -0.869092
vn 0.000000 0.494651 -0.869092
vn 0.000000 0.494651 -0.869092
vn -1.000000 -0.000000 0.000000
vn -1.000000 -0.000000 0.000000
vn -1.000000 -0.000000 0.000000
vn -1.000000 -0.000000 0.000000
vn 0.000000 -0.388801 0.921322
vn 0.000000 -0.388801 0.921322
vn 0.000000 -0.388801 0.921322
vn 0.000000 -0.388801 0.921322
vn 1.000000 0.000000 0.000000
vn 1.000000 0.000000 0.000000
vn 1.000000 0.000000 0.000000
vn 1.000000 0.000000 0.000000
vn 0.000000 0.475938 -0.879479
vn 0.000000 0.475938 -0.879479
vn 0.000000 0.475938 -0.879479
vn 0.000000 0.475938 -0.879479
vn 0.000000 -0.988815 -0.149148
vn 0.000000 -0.988815 -0.149148
vn 0.000000 -0.988815 -0.149148
vn 0.000000 -0.988815 -0.149148
vn -1.000000 0.000000 0.000000
vn -1.000000 0.000000 0.000000
vn -1.000000 0.000000 0.000000
vn -1.000000 0.000000 0.000000
vn 0.000000 0.997568 0.069707
vn 0.000000 0.997568 0.069707
vn 0.000000 0.997568 0.069707
vn 0.000000 0.997568 0.069707
vn 1.000000 0.000000 0.000000
vn 1.000000 0.000000 0.000000
vn 1.000000 0.000000 0.000000
vn 1.000000 0.000000 0.000000
vn 0.000000 0.000000 1.000000
vn 0.000000 0.000000 1.000000
vn 0.000000 0.000000 1.000000
vn 0.000000 0.000000 1.000000
vn 0.000000 1.000000 0.000000
vn 0.000000 1.000000 0.000000
vn 0.000000 1.000000 0.000000
vn 0.000000 1.000000 0.000000
vn 0.000000 0.000000 -1.000000
vn 0.000000 0.000000 -1.000000
vn 0.000000 0.000000 -1.000000
vn 0.000000 0.000000 -1.000000
vn 0.000000 -1.000000 0.000000
vn 0.000000 -1.000000 0.000000
vn 0.000000 -1.000000 0.000000
vn 0.000000 -1.000000 0.000000
vn 1.000000 0.000000 0.000000
vn 1.000000 0.000000 0.000000
vn 1.000000 0.000000 0.000000
vn 1.000000 0.000000 0.000000
vn -1.000000 0.000000 0.000000
vn -1.000000 0.000000 0.000000
vn -1.000000 0.000000 0.000000
vn -1.000000 0.000000 0.000000
s 1
g pCube3
usemtl standardSurface2SG
f 1/137/1 24/2/2 89/3/3 90/115/4
s 2
f 9/5/5 18/6/6 19/175/7 12/176/8
s 3
f 91/9/9 92/10/10 21/11/11 7/12/12
s 4
f 13/13/13 22/14/14 23/134/15 16/136/16
s 5
f 2/138/17 8/18/18 94/19/19 95/113/20
s 6
f 7/12/21 1/1/22 90/4/23 91/9/24
s 7
f 3/130/25 17/22/26 18/6/27 9/5/28
s off
f 4/129/29 6/24/30 11/180/31 10/172/32
s 8
f 20/27/33 5/28/34 12/179/35 19/7/36
s off
f 5/28/37 3/21/38 9/171/39 12/8/40
s 9
f 7/12/41 21/11/42 22/14/43 13/13/44
s off
f 8/18/45 2/138/46 15/132/47 14/177/48
s 10
f 24/2/49 1/137/50 16/135/51 23/15/52
s off
f 1/1/53 7/12/54 13/178/55 16/16/56
s 7
f 17/22/26 25/31/57 26/32/58 18/6/27
s 2
f 19/175/7 18/6/6 26/32/59 27/173/60
s 8
f 28/34/61 20/27/33 19/7/36 27/33/62
s 3
f 21/11/11 92/10/10 93/35/63 29/36/64
s 9
f 22/14/43 21/11/42 29/36/65 30/37/66
s 4
f 23/134/15 22/14/14 30/37/67 31/131/68
s 10
f 32/39/69 24/2/49 23/15/52 31/38/70
s 1
f 96/40/71 89/3/3 24/2/2 32/39/72
s 7
f 25/31/57 4/23/73 10/26/74 26/32/58
s 2
f 27/173/60 26/32/59 10/26/75 11/174/76
s 8
f 6/24/77 28/34/61 27/33/62 11/25/78
s 3
f 29/36/64 93/35/63 94/19/79 8/18/80
s 9
f 30/37/66 29/36/65 8/18/81 14/30/82
s 4
f 31/131/68 30/37/67 14/30/83 15/133/84
s 10
f 2/17/85 32/39/69 31/38/70 15/29/86
s 1
f 95/20/87 96/40/71 32/39/72 2/17/88
f 17/22/89 34/149/90 33/150/91 25/31/92
f 35/128/93 34/149/90 17/22/89 3/130/94
s 6
f 36/44/95 35/43/96 3/21/97 5/28/98
s 3
f 5/28/99 20/27/100 37/45/101 36/44/102
f 38/46/103 37/45/101 20/27/100 28/34/104
f 39/47/105 38/46/103 28/34/104 6/24/106
s 5
f 40/127/107 39/47/108 6/24/109 4/129/110
s 1
f 25/31/92 33/150/91 40/48/111 4/23/112
s off
f 98/49/113 97/50/114 99/51/115 100/170/116
s 1
f 43/126/117 42/148/118 34/149/90 35/128/93
s 6
f 44/55/119 43/53/120 35/43/96 36/44/95
s 3
f 36/44/102 37/45/101 45/56/121 44/55/122
f 46/57/123 45/56/121 37/45/101 38/46/103
f 47/58/124 46/57/123 38/46/103 39/47/105
s 5
f 48/125/125 47/58/126 39/47/108 40/127/107
s 1
f 40/48/111 33/150/91 41/147/127 48/59/128
f 42/148/118 50/61/129 49/62/130 41/147/127
f 51/124/131 50/61/129 42/148/118 43/126/117
s 6
f 52/64/132 51/63/133 43/53/120 44/55/119
s 3
f 44/55/122 45/56/121 53/65/134 52/64/135
f 54/66/136 53/65/134 45/56/121 46/57/123
f 55/67/137 54/66/136 46/57/123 47/58/124
s 5
f 56/123/138 55/67/139 47/58/126 48/125/125
s 1
f 48/59/128 41/147/127 49/62/130 56/68/140
f 50/61/129 58/145/141 57/146/142 49/62/130
f 59/122/143 58/145/141 50/61/129 51/124/131
s 6
f 60/72/144 59/71/145 51/63/133 52/64/132
s 3
f 52/64/135 53/65/134 61/73/146 60/72/147
f 62/74/148 61/73/146 53/65/134 54/66/136
f 63/75/149 62/74/148 54/66/136 55/67/137
s 5
f 64/121/150 63/75/151 55/67/139 56/123/138
s 1
f 56/68/140 49/62/130 57/146/142 64/76/152
s off
f 102/77/153 101/78/154 103/79/155 104/163/156
s 1
f 67/120/157 66/144/158 58/145/141 59/122/143
s 6
f 68/83/159 67/81/160 59/71/145 60/72/144
s 3
f 60/72/147 61/73/146 69/84/161 68/83/162
f 70/85/163 69/84/161 61/73/146 62/74/148
f 71/86/164 70/85/163 62/74/148 63/75/149
s 5
f 72/119/165 71/86/166 63/75/151 64/121/150
s 1
f 64/76/152 57/146/142 65/143/167 72/87/168
f 66/144/158 74/142/169 73/141/170 65/143/167
f 75/118/171 74/142/169 66/144/158 67/120/157
s 6
f 76/92/172 75/91/173 67/81/160 68/83/159
s 3
f 68/83/162 69/84/161 77/153/174 76/92/175
f 78/154/176 77/153/174 69/84/161 70/85/163
f 79/95/177 78/154/176 70/85/163 71/86/164
s 5
f 80/117/178 79/95/179 71/86/166 72/119/165
s 1
f 72/87/168 65/143/167 73/141/170 80/96/180
f 82/116/181 81/140/182 74/142/169 75/118/171
s 6
f 83/99/183 82/97/184 75/91/173 76/92/172
s 3
f 76/92/175 77/153/174 84/151/185 83/99/186
s off
f 110/101/187 109/102/188 111/155/189 112/104/190
s 3
f 86/105/191 85/152/192 78/154/176 79/95/177
s 5
f 87/114/193 86/105/194 79/95/179 80/117/178
s 1
f 80/96/180 73/141/170 88/139/195 87/107/196
s off
f 106/109/197 105/110/198 107/111/199 108/159/200
s 1
f 90/115/4 89/3/3 81/140/182 82/116/181
s 6
f 91/9/24 90/4/23 82/97/184 83/99/183
s 3
f 83/99/186 84/151/185 92/10/10 91/9/9
f 93/35/63 92/10/10 84/151/185 85/152/192
f 94/19/79 93/35/63 85/152/192 86/105/191
s 5
f 95/113/20 94/19/19 86/105/194 87/114/193
s 1
f 87/107/196 88/139/195 96/40/71 95/20/87
f 88/139/195 81/140/182 89/3/3 96/40/71
s off
f 34/41/201 42/54/202 97/50/203 98/49/204
f 42/54/205 41/169/206 99/168/207 97/50/208
f 41/60/209 33/167/210 100/170/211 99/51/212
f 33/42/213 34/41/214 98/49/215 100/52/216
f 58/69/217 66/82/218 101/78/219 102/77/220
f 66/82/221 65/166/222 103/165/223 101/78/224
f 65/88/225 57/164/226 104/163/227 103/79/228
f 57/70/229 58/69/230 102/77/231 104/80/232
f 74/89/233 81/98/234 105/110/235 106/109/236
f 81/98/237 88/162/238 107/161/239 105/110/240
f 88/108/241 73/160/242 108/159/243 107/111/244
f 73/90/245 74/89/246 106/109/247 108/112/248
f 85/106/249 84/158/250 109/157/251 110/101/252
f 84/100/253 77/156/254 111/155/255 109/102/256
f 77/93/257 78/94/258 112/104/259 111/103/260
f 78/94/261 85/106/262 110/101/263 112/104/264
usemtl standardSurface3SG
f 113/181/265 114/182/266 116/183/267 115/184/268
f 115/184/269 116/185/270 118/186/271 117/187/272
f 117/187/273 118/188/274 120/189/275 119/190/276
f 119/190/277 120/191/278 114/192/279 113/181/280
f 114/192/281 120/191/282 118/193/283 116/194/284
f 119/190/285 113/181/286 115/184/287 117/187/288
